<svg id="Layer_1" data-name="Layer 1" xmlns="http://www.w3.org/2000/svg" xmlns:xlink="http://www.w3.org/1999/xlink" viewBox="0 0 311.16 269.39"><defs><style>.cls-1{opacity:0.15;}.cls-2{fill:#6b99d1;}.cls-3{fill:#dceeff;}.cls-4,.cls-60,.cls-65{fill:#fff;}.cls-5{fill:#c8e2ff;}.cls-6{fill:#a5cbfa;}.cls-7{fill:#ffa8a7;}.cls-8{fill:#f5fbfb;}.cls-9{fill:#6a89ce;}.cls-10{fill:#2d2979;}.cls-11{fill:#c4d9ff;}.cls-12{fill:#aacaf9;}.cls-13{fill:#f28f8f;}.cls-14{fill:#7fa8e6;}.cls-15{fill:#3a2c6d;}.cls-16{fill:#eff6fe;}.cls-17{fill:#aad1fc;}.cls-18{fill:#aeb5b7;}.cls-19{fill:#bbb6b9;}.cls-20{fill:#96d151;}.cls-21{fill:#42494d;}.cls-22{fill:#757575;}.cls-23{fill:#79ac35;}.cls-24{fill:#a8d96f;}.cls-25{fill:#dee2da;}.cls-26{fill:#afb8a4;}.cls-27{fill:#596063;}.cls-28{fill:url(#linear-gradient);}.cls-29{fill:#d4bcab;}.cls-30{fill:#29316f;}.cls-31{fill:#39438e;}.cls-32{fill:#3a3f47;}.cls-33{fill:#d9e4ff;}.cls-34{fill:#6696ff;}.cls-35{fill:#e8efff;}.cls-36{fill:#70524b;}.cls-37{fill:#4079ff;}.cls-38{fill:url(#linear-gradient-2);}.cls-39{fill:url(#linear-gradient-3);}.cls-40{fill:#754942;}.cls-41{fill:url(#linear-gradient-4);}.cls-42{fill:url(#linear-gradient-5);}.cls-43,.cls-44{opacity:0.2;}.cls-44,.cls-60,.cls-65{isolation:isolate;}.cls-45{fill:#171716;}.cls-46{fill:#102946;}.cls-47{fill:#091b2d;}.cls-48{fill:#ccdcf8;}.cls-49{fill:#77d2ff;}.cls-50{fill:#5fb9e6;}.cls-51{fill:#e5eeff;}.cls-52{fill:#301806;}.cls-53{fill:#231202;}.cls-54{fill:#f9f9f9;}.cls-55{fill:#e8a476;}.cls-56{fill:#defdff;}.cls-57{fill:#3484ff;}.cls-58{fill:#4e93f9;}.cls-59{fill:#8dd5ff;}.cls-60{opacity:0.1;}.cls-61{fill:#9ff8ff;}.cls-62{fill:#2bb4da;}.cls-63{fill:#1c9cba;}.cls-64{fill:#65e0f6;}.cls-65{opacity:0.5;}</style><linearGradient id="linear-gradient" x1="3718.14" y1="864.75" x2="3777.83" y2="867.52" gradientTransform="matrix(1, 0, 0, -1, 564, 1316)" gradientUnits="userSpaceOnUse"><stop offset="0.05" stop-color="#feb9b8"/><stop offset="0.99" stop-color="#fea5a4"/></linearGradient><linearGradient id="linear-gradient-2" x1="1877.51" y1="787.27" x2="1981.91" y2="787.27" xlink:href="#linear-gradient"/><linearGradient id="linear-gradient-3" x1="2150.98" y1="792.91" x2="2318.91" y2="792.91" xlink:href="#linear-gradient"/><linearGradient id="linear-gradient-4" x1="939.99" y1="792.4" x2="945.12" y2="792.4" xlink:href="#linear-gradient"/><linearGradient id="linear-gradient-5" x1="-16212.4" y1="4802.7" x2="-16129.24" y2="4782.49" xlink:href="#linear-gradient"/></defs><g class="cls-1"><path class="cls-2" d="M1346.4,735.37l-36.09-20.85a9,9,0,0,0-8.09,0l-36.1,20.85c-2.23,1.28-2.23,3.37,0,4.66l36.1,20.84a8.92,8.92,0,0,0,8.09,0l36.09-20.75C1348.64,738.76,1348.64,736.67,1346.4,735.37Z" transform="translate(-1036.92 -505.61)"/></g><path class="cls-3" d="M1346.4,692.56l-36.09-20.92a9,9,0,0,0-8.09,0l-36.1,20.92c-2.23,1.29-2.23,3.38,0,4.66l36.1,20.71a9,9,0,0,0,8.09,0l36.09-20.85C1348.64,695.86,1348.64,693.77,1346.4,692.56Z" transform="translate(-1036.92 -505.61)"/><path class="cls-4" d="M1306.26,672.26a6.57,6.57,0,0,1,3.25.76l36.13,20.83c.65.38.88.76.88,1s-.23.58-.88.95l-36.09,20.84a7.33,7.33,0,0,1-6.5,0l-36.13-20.88c-.65-.36-.87-.74-.87-1s.22-.58.87-1L1303,673a6.63,6.63,0,0,1,3.17-.77Zm-.08-1.62a8.17,8.17,0,0,0-4,1l-36,20.95c-2.23,1.29-2.23,3.38,0,4.66l36.1,20.71a8.92,8.92,0,0,0,8.09,0l36.09-20.85c2.24-1.28,2.24-3.38,0-4.66l-36.09-20.78a8.29,8.29,0,0,0-4-1Z" transform="translate(-1036.92 -505.61)"/><path class="cls-5" d="M1348.06,731.25a2.73,2.73,0,0,1-.48,1.37,2.8,2.8,0,0,1-1.1,1l-36.18,20.82a8.34,8.34,0,0,1-4,1V718.89a8.11,8.11,0,0,0,4-.95l36.1-20.84a2.83,2.83,0,0,0,1.1-1,2.69,2.69,0,0,0,.48-1.37Z" transform="translate(-1036.92 -505.61)"/><path class="cls-6" d="M1264.46,731.25a2.8,2.8,0,0,0,.51,1.39,2.75,2.75,0,0,0,1.15.93l36.1,20.82a8.34,8.34,0,0,0,4,1V718.89a8.11,8.11,0,0,1-4-.95l-36.1-20.84a2.85,2.85,0,0,1-1.15-.94,2.8,2.8,0,0,1-.51-1.39Z" transform="translate(-1036.92 -505.61)"/><path class="cls-7" d="M1279.92,673.89a56.25,56.25,0,0,1-8.06,11c-.87,1-1.27,2-2.72,4.09a15.9,15.9,0,0,1-5.57,5.12c-1.93.92-2.77.93-3.17.63s-.24-.92.6-1.44a13.28,13.28,0,0,0,3.68-2.85s-1.77,1.22-2.9,1.87a12.47,12.47,0,0,1-3.17,1.28c-1.08.27-2.31-.84-1.47-1.38s1.58-.74,3.26-1.71a12.81,12.81,0,0,0,2.44-1.84,24,24,0,0,1-3.55,1.48,5.62,5.62,0,0,1-3,.25c-.53-.13-1-1,.09-1.58a19.42,19.42,0,0,0,4.27-1.89c1.28-.89,2.07-1.7,1.77-1.76s-1,.49-2.37.66-2.67-.46-2.7-1.18.25-.39,1.59-.77a32.21,32.21,0,0,1,4.17-1.58,14.29,14.29,0,0,0,4.12-1.33c1.41-.72,4.31-5.25,6.51-9.32a138.17,138.17,0,0,0,4.68-14.89c1.39-5,3.28-15.17,4.3-18.63s2.64-4.23,4.75-4.75c2.41-.56,3.66,2.45,3.17,5.37C1289.82,644,1285.83,663.84,1279.92,673.89Z" transform="translate(-1036.92 -505.61)"/><path class="cls-8" d="M1270,677.41l-2.08,2.71a5.16,5.16,0,0,0,2.46,2.46c2,1.17,2.79,1,2.79,1l2-2.61Z" transform="translate(-1036.92 -505.61)"/><path class="cls-9" d="M1287.57,632.94c-2.44-.38-4.47,1.9-5.52,5.45s-3.17,14-3.82,16.73c-3.44,15.27-9.22,23.41-9.22,23.41a9.13,9.13,0,0,0,5.59,3.47A78.24,78.24,0,0,0,1285,664.85c3.17-7.32,4.76-17.31,5.31-20.18C1291.49,637.92,1292,633.64,1287.57,632.94Z" transform="translate(-1036.92 -505.61)"/><path class="cls-10" d="M1263,739.69a19.44,19.44,0,0,0,.46,2.51,10.27,10.27,0,0,1,.36,3.9c-.21.92-2.81,2.22-4.25,2.41a9,9,0,0,0-4.5,2.77,8.37,8.37,0,0,1-6.34,2.38c-2-.24-4.3-.71-4.76-1.59s.19-1.74,4.42-4.75,7.06-4.84,8.39-7.64Z" transform="translate(-1036.92 -505.61)"/><path class="cls-10" d="M1278.36,768.32a6.52,6.52,0,0,1-2.11,1.76,7,7,0,0,1-2.64.77,19.28,19.28,0,0,1-2.94.11c-1,0-2.63-.62-2.53-1.91a2.18,2.18,0,0,1,.55-1.09c1.59-2.14,3.44-4.2,5-6.45a20.46,20.46,0,0,0,4-8.74H1284a16.69,16.69,0,0,0,.27,2,21.15,21.15,0,0,0,.44,2.1,5.74,5.74,0,0,1-.19,4.12,8.9,8.9,0,0,1-2.44,2.22A23.73,23.73,0,0,0,1278.36,768.32Z" transform="translate(-1036.92 -505.61)"/><path class="cls-11" d="M1311.51,685.24c2.3,14.36-4.09,19.74-12.38,22.79-6,2.19-14.51,5.57-14.51,5.57s.13,3.17.19,10.24c0,6.23-.76,29-.76,29a7,7,0,0,1-6.34,0s-3.34-17.44-4.06-25.37c-1-10.67-2.6-17.66-2.06-19.94.49-2,12.15-7.75,15.86-10.83L1263,704.88a42.47,42.47,0,0,1,.7,8c-.22,8.46-.68,26.77-.68,26.77s-3.36,2.43-6.22,0c0,0-6.13-36.27-5.39-41.05s22.2-13.88,26-17.08c2.15-1.84,4.58-3.79,4.58-3.79Z" transform="translate(-1036.92 -505.61)"/><path class="cls-12" d="M1287.41,696.7a14.63,14.63,0,0,1-5.48-6.82,10.51,10.51,0,0,0,1.31,5.66c.18,1-20.24,9.34-20.24,9.34Z" transform="translate(-1036.92 -505.61)"/><path class="cls-7" d="M1303.12,630.28s-.34,6.85-.2,7.46,3.17,2.6,4,3.33-4.75,6.25-7.46,7.5-11.35-2-11.51-6.34,1.47-7.8,2.8-7.93S1303.12,630.28,1303.12,630.28Z" transform="translate(-1036.92 -505.61)"/><path class="cls-13" d="M1291.88,638.12c-.9-.8.13-2.61.76-3.86,2.83-.86,10.48-4,10.48-4s0,1.58-.12,2.68a4.67,4.67,0,0,1-.54,1.89,4.59,4.59,0,0,1-1.29,1.48,12.85,12.85,0,0,1-3.06,1.79C1297,638.55,1294,640,1291.88,638.12Z" transform="translate(-1036.92 -505.61)"/><path class="cls-8" d="M1303.9,638.76s-3,4.83-12.38,5.74a10.46,10.46,0,0,1-.69-5.1,10.58,10.58,0,0,1,1.81-4.81s-2.79-2.25-4.75-1.81a9.81,9.81,0,0,0-4.27,5.45,45,45,0,0,0-2.46,15.86c.13,7.26-.22,25.36-.22,25.36s-1.19,5.31,7.61,9.34a24,24,0,0,0,15.2,2.27c3.52-.83,7.28-2.16,8-3.81-.7-5.8-2.49-16-2-22,.52-6.44,1.88-11.1,2.23-16.3s-.68-5.07-3.28-6.92A41,41,0,0,0,1303.9,638.76Z" transform="translate(-1036.92 -505.61)"/><path class="cls-14" d="M1292.65,634.59s-8.28,10.78-2.78,23.14c0,0-1.25,26.41-1.47,32.69a12.44,12.44,0,0,1-5.19-3.56s-3.17-2.11-3-7.55c0,0,.49-9.64.76-18.12s-.24-15.6,1.82-21.62,5.66-7.11,5.66-7.11Z" transform="translate(-1036.92 -505.61)"/><path class="cls-9" d="M1291.87,635.84v-3a15.73,15.73,0,0,0-3.92,4.85,62.25,62.25,0,0,0-2.89,10.1c-.28,1.76,2.46,5.58,2.46,5.58s-1.87,1.84-1.58,3.08,3.53,8,3.44,10.16c0-.38.46-8.93.46-8.93a44,44,0,0,1-1.15-11.44C1289.41,638.81,1291.87,635.84,1291.87,635.84Z" transform="translate(-1036.92 -505.61)"/><path class="cls-14" d="M1302.92,637.74c0,2.19-3.29,8.06-13.05,20-.7,12-1.47,32.69-1.47,32.69s16.94,9,24.84.84c0,0-.53-3.82-1.87-10.38s-.94-16.09-.12-22.89,2.81-12.68.12-15A61.23,61.23,0,0,0,1302.92,637.74Z" transform="translate(-1036.92 -505.61)"/><path class="cls-7" d="M1287.64,620.08c.8-5.32,4.64-9.33,10.11-9a10.53,10.53,0,0,1,9.36,14.13,10.59,10.59,0,0,1-4,5.1,11,11,0,0,1-.84,2.33c-2,2.26-7.8,3.66-9.51,3.42a5,5,0,0,1-4.36-3.57C1286.61,628.28,1287.18,622.7,1287.64,620.08Z" transform="translate(-1036.92 -505.61)"/><path class="cls-15" d="M1288.42,615.79a10.49,10.49,0,0,1,11-4.54,10.67,10.67,0,0,1,8.32,9.34,10.41,10.41,0,0,1-1,5.47,10.57,10.57,0,0,1-3.62,4.22c.11-.35,2.88-4.49,0-5.39a3.43,3.43,0,0,0-.59,2.15s-1.41-.12-1.09-1.77c.08-.48.17-.89.24-1.27a4.78,4.78,0,0,0,0-1.92,4.71,4.71,0,0,0-.78-1.74,4.34,4.34,0,0,1-.75-1.65,4.42,4.42,0,0,1,0-1.81,14.25,14.25,0,0,1-8,.62A7.19,7.19,0,0,1,1288.42,615.79Z" transform="translate(-1036.92 -505.61)"/><path class="cls-15" d="M1300.16,616.88a11.73,11.73,0,0,1-6.2,2c-4.4.48-8.32-2.08-9.26-3.87-1.39-2.72,1.4-.76,3.94-2.11s12-5.88,16,1.1c0,0,2.3.36,2.88,1.71A15.34,15.34,0,0,1,1307,625Z" transform="translate(-1036.92 -505.61)"/><path class="cls-7" d="M1303.12,630.25s.24.57,1.27.61c1.94.1,4.19-3.47,2.63-5.91a2.34,2.34,0,0,0-.86-.67,2.46,2.46,0,0,0-1.07-.24,2.49,2.49,0,0,0-1.07.24,2.34,2.34,0,0,0-.86.67Z" transform="translate(-1036.92 -505.61)"/><path class="cls-7" d="M1301.62,699.24a33.68,33.68,0,0,1,3.69-2.56,8,8,0,0,0,3.17-2.29c1.11-1.3,2.71-6,3.76-10.47a45.08,45.08,0,0,0,.36-15.37c-1.12-6.11-4.07-14.51-4.94-18s.15-5,1.69-6.45c1.79-1.7,4.52-1.24,6.34,3.6a95.29,95.29,0,0,1,5,20.72,48,48,0,0,1-1.08,15.72,55.27,55.27,0,0,1-4.86,12.69c-.59,1.2-.72,2.25-1.59,4.66a15.7,15.7,0,0,1-4,6.42c-1.59,1.39-2.43,1.58-2.85,1.44s-.49-.82.19-1.58a13.25,13.25,0,0,0,2.79-3.73s-1.38,1.59-2.3,2.57a12.91,12.91,0,0,1-2.74,2.09c-1,.54-2.46-.21-1.81-1s1.38-1.14,2.71-2.52a13.19,13.19,0,0,0,1.87-2.41,23.79,23.79,0,0,1-3,2.36,5.6,5.6,0,0,1-2.86,1.05c-.55,0-1.27-.67-.31-1.49a20,20,0,0,0,3.61-2.93c1-1.21,1.58-2.19,1.25-2.19s-.87.76-2.12,1.28-2.7.27-2.92-.44S1300.46,699.94,1301.62,699.24Z" transform="translate(-1036.92 -505.61)"/><path class="cls-8" d="M1310.32,690.17l-1.24,2.81s.31,1.34,2.86,2.5,3.39.71,3.39.71l1.43-3.17Z" transform="translate(-1036.92 -505.61)"/><path class="cls-9" d="M1289.87,657.69s6.61-9.4,9-12.58a31.41,31.41,0,0,0,4-8.22v-1.71a1.59,1.59,0,0,1,1.46.84,47.08,47.08,0,0,0,2.65,4s-2.1,8.27-4.38,10.84a12.49,12.49,0,0,1-5.64,3.41s1,3.55-.13,4.31a33,33,0,0,0-7.47,8.07Z" transform="translate(-1036.92 -505.61)"/><path class="cls-9" d="M1309.81,643.21c-1.71.95-3.52,3.09-2.28,8.17s3.39,11.4,4.41,16a37.12,37.12,0,0,1,.2,14.7c-1,4.37-2.45,9.08-2.45,9.08s3.5,3.17,6.78,3.09a52.47,52.47,0,0,0,4.44-15.42,68.15,68.15,0,0,0-4.39-29.95C1313.24,640.79,1309.81,643.21,1309.81,643.21Z" transform="translate(-1036.92 -505.61)"/><path class="cls-16" d="M1253,691.22l16.41-9.52a1,1,0,0,1,.47-.13,1,1,0,0,1,.48.13l28.79,16.62-16.87,9.8Z" transform="translate(-1036.92 -505.61)"/><path class="cls-17" d="M1282.35,706.72l8.87-5.1-25.89-15-8.9,5.07Z" transform="translate(-1036.92 -505.61)"/><path class="cls-18" d="M1286.72,692.52l-.18.09-4.33,2.51-7.72-4.46-.16-.09,4.51-2.6Z" transform="translate(-1036.92 -505.61)"/><path class="cls-17" d="M1286.54,692.61l-4.33,2.51-7.72-4.46,4.35-2.5Z" transform="translate(-1036.92 -505.61)"/><path class="cls-5" d="M1299.09,698.36v.39a1.49,1.49,0,0,1-.21.79,1.54,1.54,0,0,1-.58.58L1283,709a1.59,1.59,0,0,1-1.58,0l-27.73-16a1.61,1.61,0,0,1-.58-.58,1.66,1.66,0,0,1-.21-.79v-.39l29.33,16.9Z" transform="translate(-1036.92 -505.61)"/><path class="cls-17" d="M1282.23,708.12v1a1.56,1.56,0,0,1-.79-.21l-27.75-16a1.61,1.61,0,0,1-.58-.58,1.66,1.66,0,0,1-.21-.79v-.39Z" transform="translate(-1036.92 -505.61)"/><path class="cls-16" d="M1281.77,708.42a2,2,0,0,1-.81.1,2,2,0,0,1-.78-.23l-27.57-15.85a2,2,0,0,1-.59-.56,2,2,0,0,1-.31-.74l-3-18a1.61,1.61,0,0,1,0-.31,1.93,1.93,0,0,1,.55-1.34L1277.88,688a1.27,1.27,0,0,1,.45.41,1.34,1.34,0,0,1,.24.56Z" transform="translate(-1036.92 -505.61)"/><path class="cls-5" d="M1282.23,708.11l-.19.11-.25.13-3.27-19.48a1.31,1.31,0,0,0-.23-.56,1.36,1.36,0,0,0-.45-.41l-28.63-16.53a1.53,1.53,0,0,1,.38-.29l28.69,16.57a1.44,1.44,0,0,1,.69,1Z" transform="translate(-1036.92 -505.61)"/><path class="cls-17" d="M1266.25,691.74a6.11,6.11,0,0,0-2.79-3.57c-1.33-.78-2.24-.43-2,.78a6.18,6.18,0,0,0,2.78,3.58C1265.52,693.29,1266.38,692.94,1266.25,691.74Z" transform="translate(-1036.92 -505.61)"/><g class="cls-1"><path class="cls-2" d="M1287,754.72l-14.48-8.35c-9.82-5.68-23.39-7-30.28-3s-4.55,11.81,5.26,17.43l14.47,8.36c9.83,5.67,23.4,7,30.3,3S1296.77,760.4,1287,754.72Z" transform="translate(-1036.92 -505.61)"/></g><path class="cls-7" d="M1103.36,606.06a33.47,33.47,0,0,0-4.3-1.22,14.16,14.16,0,0,1-4.21-1c-1.46-.61-4.76-4.28-7.3-8.15a44.87,44.87,0,0,1-5.62-14.27,106.19,106.19,0,0,1-1.15-18.6c.19-3.75-1.45-5.32-3.39-6.15-2.27-1-3.91-.25-4,4.93a97.36,97.36,0,0,0,2.06,21.6,46.14,46.14,0,0,0,6.16,14.26,58.4,58.4,0,0,0,8.87,10.53c1,.92,1.44,1.85,3.06,3.84a15.8,15.8,0,0,0,6,4.62c2,.77,2.86.72,3.17.37s.18-.94-.71-1.38a13.48,13.48,0,0,1-3.92-2.54s1.89,1.08,3.06,1.59a12.36,12.36,0,0,0,3.3,1c1.1.18,2.24-1,1.36-1.5s-1.68-.6-3.42-1.43a13.54,13.54,0,0,1-2.57-1.58,25,25,0,0,0,3.66,1.15,5.46,5.46,0,0,0,3,0c.51-.17,1-1.06-.22-1.58a19.21,19.21,0,0,1-4.41-1.59c-1.36-.77-2.22-1.5-1.92-1.58s1.06.39,2.43.46,2.61-.69,2.6-1.41S1104.69,606.32,1103.36,606.06Z" transform="translate(-1036.92 -505.61)"/><g class="cls-1"><path class="cls-2" d="M1046.16,696.73l14.48-8.37c9.83-5.66,23.38-7,30.29-3s4.55,11.82-5.26,17.44l-14.49,8.35c-9.81,5.68-23.38,7-30.29,3S1036.34,702.39,1046.16,696.73Z" transform="translate(-1036.92 -505.61)"/></g><path class="cls-10" d="M1058.72,683.48c-.62,1.76.18,3.17.67,4.76a21.85,21.85,0,0,1,.73,6.83,1.3,1.3,0,0,0,.89.28,1.36,1.36,0,0,0,.87-.38s-.13-6.43,1.58-5.91Z" transform="translate(-1036.92 -505.61)"/><path class="cls-7" d="M1073.22,693.53c-1.77-2.55-4.16-10.92-4.75-12.84a13.59,13.59,0,0,1-.37-3.81c.1-2.83,3.46-9.51,3.46-9.51l-7.5-1.33-1.69,10.61a10.85,10.85,0,0,1-1.13,3.06,27.34,27.34,0,0,0-1.79,3.79,3.16,3.16,0,0,0-.26,2.22,3.21,3.21,0,0,0,1.27,1.83,25.25,25.25,0,0,1,4.39,4.06c1.27,1.59,1.18,3.68,3.17,5.55s6,.46,6.69-.19C1075.79,696.08,1075.44,695.27,1073.22,693.53Z" transform="translate(-1036.92 -505.61)"/><path class="cls-10" d="M1072.94,695.67c-4.33,1.06-5.2.48-6.43-4.41-1-3.74-1.78-6.42-3.43-7.92a5.24,5.24,0,0,1-1.62-1.91,5.16,5.16,0,0,1-.55-2.44c-.43,0-.65.49-.94,1.43-.63,2.17-1.36,2.44-1.39,4a4.46,4.46,0,0,0,.62,2.1,4.54,4.54,0,0,0,1.53,1.55,7.23,7.23,0,0,1,3.29,3.63c1,2.16.82,4.55,1.58,6.55,3,2.34,6.23,3.9,11.1,1.66.93-2.47,1.71-3.58-3.41-6.43C1074.16,694.62,1074.57,695.27,1072.94,695.67Z" transform="translate(-1036.92 -505.61)"/><path class="cls-10" d="M1056.44,689.3a9.75,9.75,0,0,0-1.06,5.43c.23,3,.88,2.38.68,6.35-.15,2.45-1.33,5.58,0,7.46,2.25,2.24,8.16,2,9.4.76a6.45,6.45,0,0,0,.44-3c-.14-.83-1.49-1.71-1.71-2.54s-.36-1.46-.59-2.56c-.71-3.59-1.58-11.9-1.58-11.9Z" transform="translate(-1036.92 -505.61)"/><path class="cls-7" d="M1061,705.07a7.69,7.69,0,0,1-2.69-.46,2,2,0,0,1-.61-.69,2,2,0,0,1-.22-.89c-.28-1.89.37-4.19-.47-6.81a13,13,0,0,1-.54-7,38.83,38.83,0,0,0,.09-7.07l5.76-.09s-.26,4.75-.24,7.16a114.57,114.57,0,0,0,1,12.69c.24,1.25.45,1.74.3,2.28C1063.33,704.25,1062.84,705,1061,705.07Z" transform="translate(-1036.92 -505.61)"/><path class="cls-7" d="M1052.85,602.68c-2,8.78.67,22.71,1.11,29.94s1.08,15.62,1.08,15.62a55.45,55.45,0,0,0-2.09,13.49c.11,6.23,3.66,21.45,3.66,25.06,2.16.43,4.19.4,5.47-.85,0,0,.87-15.57,1.71-22.72.89-7.47,1.19-12.92,2-17.28,1-5.45,2.59-30.34,2.59-30.34l.84.23,2,24.51a36.49,36.49,0,0,0-3.85,8.77c-1.14,4.41-4.76,25.37-4.76,25.37s2.65,3,5.82,1.12c1-3.27,12.08-28.92,13.57-31.34,1.7-2.76,1.87-35.37-.73-43.06Z" transform="translate(-1036.92 -505.61)"/><path class="cls-7" d="M1061.52,547.94s.46,8.27.31,8.87-3.17,1.19-4.13,1.91,4.47,9.13,7.2,10.38,11.19-1.9,11.78-6.1c.56-3.87-2.39-6.88-3.52-7.93a18.43,18.43,0,0,0-2.35,0l-.22-4Z" transform="translate(-1036.92 -505.61)"/><path class="cls-8" d="M1060.35,557.61c-2.31.36-5,1.58-5.34,2.87a27.26,27.26,0,0,0,.62,13.8,86.51,86.51,0,0,0,5.49,11.24,22.25,22.25,0,0,0,16.91-2.25,53.69,53.69,0,0,0,.87-7.37c7.5-6.52,1.14-14.58-5.18-20.85a14.46,14.46,0,0,0-2.28,0,15.62,15.62,0,0,1,3.45,4.76,4.22,4.22,0,0,1-1.76,5.8c-3,1.3-5.1.52-7.59-2.17C1063.86,561.49,1063.05,559.13,1060.35,557.61Z" transform="translate(-1036.92 -505.61)"/><path class="cls-13" d="M1070.79,554.23l-.19-3.25-2.64-.86-6.43-2.18.11,2.6s.27,2.82,4.93,5C1067.39,556,1070.52,556.32,1070.79,554.23Z" transform="translate(-1036.92 -505.61)"/><path class="cls-7" d="M1077,537.73c-.81-5.31-4.65-9.34-10.12-9a10.53,10.53,0,0,0-5.35,19.25,10,10,0,0,0,.84,2.31c1.93,2.28,7.08,3.73,8.78,3.76s2.74-1.35,4.14-3.63A18.17,18.17,0,0,0,1077,537.73Z" transform="translate(-1036.92 -505.61)"/><path class="cls-15" d="M1076.21,533.45a10.43,10.43,0,0,0-11-4.54,10.52,10.52,0,0,0-3.72,19c-.13-.37-2.9-4.49,0-5.41a3.48,3.48,0,0,1,.58,2.17,1.3,1.3,0,0,0,.57-.2,1.33,1.33,0,0,0,.42-.43,1.38,1.38,0,0,0,.19-.57,1.48,1.48,0,0,0-.08-.59,6,6,0,0,0-.24-1.27,4.73,4.73,0,0,1,0-1.91,4.91,4.91,0,0,1,.77-1.75,4.18,4.18,0,0,0,.74-1.65,4.25,4.25,0,0,0,0-1.81,14.09,14.09,0,0,0,8,.64A7.41,7.41,0,0,0,1076.21,533.45Z" transform="translate(-1036.92 -505.61)"/><path class="cls-15" d="M1061.45,526.84c1.88,1.58,1.19,3.85-.6,6.11s-4,3.57-5.92,2.08a5.33,5.33,0,0,1,2.94-8.7A5.3,5.3,0,0,1,1061.45,526.84Z" transform="translate(-1036.92 -505.61)"/><path class="cls-15" d="M1064.47,534.52a15.78,15.78,0,0,1,.73,6.68,21.51,21.51,0,0,0,6,.46c3-.27,5.79-.59,7.61-2.79.7-1.59-.79-10.37-8.65-9.83Z" transform="translate(-1036.92 -505.61)"/><path class="cls-7" d="M1061.53,547.94s-.26.52-1.29.57c-1.92.09-4.18-3.47-2.63-5.9a2.47,2.47,0,0,1,.85-.69,2.35,2.35,0,0,1,1.07-.26,2.47,2.47,0,0,1,1.07.21,2.61,2.61,0,0,1,.88.66Z" transform="translate(-1036.92 -505.61)"/><path class="cls-8" d="M1060.54,584.45c.57,1.07.65,2.25-1.23,5s-5.71,8.69-6.42,13.26a15,15,0,0,0,10.2,5.93c9.42,1.49,16.44-2.65,18.66-5.06a64,64,0,0,0-1.77-11.1,72.2,72.2,0,0,1-2-9.19C1077.63,579.91,1060.54,584.45,1060.54,584.45Z" transform="translate(-1036.92 -505.61)"/><path class="cls-14" d="M1060.08,588.22c-1.23,1.9-5.77,7.42-7.19,12.25s-1.59,7.93-.37,22.2S1055,647.4,1055,647.4a9.07,9.07,0,0,0,6.75,3.53c5,.61,16.73-2.3,21.39-9.16,0,0,.55-11.68.33-22s-2.82-27.94-5.13-34.48c0,0-.92,3.37-7.79,5C1064.27,591.83,1060.38,589.9,1060.08,588.22Z" transform="translate(-1036.92 -505.61)"/><path class="cls-7" d="M1062.37,615.6a31,31,0,0,0-3.41-2.87,14.29,14.29,0,0,1-3.46-2.62c-1.07-1.16-2.58-5.85-3.29-10.43a45,45,0,0,1,.71-15.3,106.73,106.73,0,0,1,6.61-17.44c1.71-3.34,1.19-5.67-.57-7s-3.87-.84-5.66,2.85a92.6,92.6,0,0,0-7,20.61A45.47,45.47,0,0,0,1046,599a57.45,57.45,0,0,0,3.76,13.23c.49,1.25.55,2.28,1.22,4.75a15.81,15.81,0,0,0,3.53,6.68c1.59,1.5,2.32,1.8,2.76,1.58s.54-.78,0-1.58a12.78,12.78,0,0,1-2.52-3.92s1.27,1.74,2.11,2.73a12.75,12.75,0,0,0,2.58,2.28c.94.6,2.48,0,1.87-.81s-1.28-1.24-2.52-2.71a13.05,13.05,0,0,1-1.69-2.54,23.4,23.4,0,0,0,2.87,2.57,5.2,5.2,0,0,0,2.77,1.24c.54,0,1.3-.57.43-1.44a19.41,19.41,0,0,1-3.41-3.18c-.92-1.26-1.4-2.28-1.08-2.25s.79.81,2,1.41,2.67.46,3-.22S1063.45,616.39,1062.37,615.6Z" transform="translate(-1036.92 -505.61)"/><path class="cls-19" d="M1164,700.72c5.11,2.94,14,2.58,19.91-.83l69.25-40c5.9-3.39,6.53-8.55,1.43-11.49s-14-2.59-19.91.82l-69.19,39.93C1159.57,692.57,1158.93,697.72,1164,700.72Z" transform="translate(-1036.92 -505.61)"/><path class="cls-20" d="M1246.43,642.49l-5.22,1.85-7,4.06v-4.76l5.88-2.64,6.38-2.1Z" transform="translate(-1036.92 -505.61)"/><path class="cls-21" d="M1238.48,649.21c0,5.34,3.78,7.48,8.42,4.75a18.47,18.47,0,0,0,8.42-14.5c0-5.34-3.77-7.48-8.42-4.76a18.58,18.58,0,0,0-8.42,14.51Z" transform="translate(-1036.92 -505.61)"/><path class="cls-21" d="M1242,651.22c0,5.34,3.78,7.49,8.42,4.76a18.51,18.51,0,0,0,8.42-14.51c0-5.34-3.77-7.48-8.42-4.75a18.54,18.54,0,0,0-8.42,14.5Z" transform="translate(-1036.92 -505.61)"/><path class="cls-22" d="M1258.46,638.78a8.11,8.11,0,0,0-1.59-3.17,4.2,4.2,0,0,0-.79-.73l-.11-.1a9.62,9.62,0,0,0-5.47-1.28,7.79,7.79,0,0,0-3.47,1.14,18.51,18.51,0,0,0-8.42,14.51,8.17,8.17,0,0,0,.52,3,8.61,8.61,0,0,0,1.77,2.83,8.43,8.43,0,0,0,2.72,1.93l.3.09.33.08h.08a9.23,9.23,0,0,0,4.57-.41,6.57,6.57,0,0,0,.63-.84,19.9,19.9,0,0,0,8.85-15.45v-.31A2.43,2.43,0,0,0,1258.46,638.78Z" transform="translate(-1036.92 -505.61)"/><path class="cls-22" d="M1242,651.22c0,5.34,3.78,7.49,8.42,4.76a18.51,18.51,0,0,0,8.42-14.51c0-5.34-3.77-7.48-8.42-4.75a18.54,18.54,0,0,0-8.42,14.5Z" transform="translate(-1036.92 -505.61)"/><path class="cls-21" d="M1245.44,649.27c0,3.17,2.24,4.46,5,2.86a11.08,11.08,0,0,0,5-8.66c0-3.17-2.25-4.45-5-2.85a11.13,11.13,0,0,0-5,8.65Z" transform="translate(-1036.92 -505.61)"/><path class="cls-20" d="M1251.48,646.13l-3.07,3.35-7.06,4.07V648.8l5.9-2.67,4.23-3.59Z" transform="translate(-1036.92 -505.61)"/><path class="cls-23" d="M1177.5,678.81l11.63,6.72,56.68-36.73-11.62-6.72L1177.5,674.8Z" transform="translate(-1036.92 -505.61)"/><path class="cls-23" d="M1175.61,672.62l-2.16,16.25,2.35-1,2.33-16.36Z" transform="translate(-1036.92 -505.61)"/><path class="cls-20" d="M1176.4,673.07l-2.14,16.25,2.33-1.06,2.33-16.35Z" transform="translate(-1036.92 -505.61)"/><path class="cls-24" d="M1177.5,674.8l11.63,6.72,56.68-32.72-11.62-6.72Z" transform="translate(-1036.92 -505.61)"/><path class="cls-20" d="M1189.13,685.53l56.68-32.74v-4l-56.68,32.72Z" transform="translate(-1036.92 -505.61)"/><path class="cls-21" d="M1165,691.51c0,5.32,3.77,7.48,8.41,4.75a18.53,18.53,0,0,0,8.41-14.52c0-5.33-3.76-7.47-8.41-4.76a18.57,18.57,0,0,0-8.41,14.53Z" transform="translate(-1036.92 -505.61)"/><path class="cls-21" d="M1168.47,693.52c0,5.34,3.78,7.48,8.42,4.75a18.45,18.45,0,0,0,8.4-14.5c0-5.34-3.75-7.48-8.4-4.76a18.58,18.58,0,0,0-8.42,14.51Z" transform="translate(-1036.92 -505.61)"/><path class="cls-22" d="M1184.9,681.07a8.46,8.46,0,0,0-1.59-3.17,5.34,5.34,0,0,0-.79-.71l-.11-.09a9.55,9.55,0,0,0-5.47-1.29,7.87,7.87,0,0,0-3.46,1.13,18.54,18.54,0,0,0-8.42,14.5,8.15,8.15,0,0,0,.5,3.09,8.47,8.47,0,0,0,4.47,4.76l.3.09.31.08h.1a8.92,8.92,0,0,0,4.55-.42,4.23,4.23,0,0,0,.63-.83,19.87,19.87,0,0,0,8.86-15.46v-.3A2.49,2.49,0,0,0,1184.9,681.07Z" transform="translate(-1036.92 -505.61)"/><path class="cls-22" d="M1168.47,693.52c0,5.34,3.78,7.48,8.42,4.75a18.45,18.45,0,0,0,8.4-14.5c0-5.34-3.75-7.48-8.4-4.76a18.58,18.58,0,0,0-8.42,14.51Z" transform="translate(-1036.92 -505.61)"/><path class="cls-21" d="M1180.43,690.72c2-3.37,2-7,0-8.16s-5.12.67-7.09,4-2,7,0,8.16S1178.46,694.1,1180.43,690.72Z" transform="translate(-1036.92 -505.61)"/><path class="cls-23" d="M1178.51,674.3l-2.14,16.25.79.43,3.87-17.83Z" transform="translate(-1036.92 -505.61)"/><path class="cls-20" d="M1180.79,621l5.93-.69-5.09,53.62c-.12,2.25-5.86,1.93-5.86,0Z" transform="translate(-1036.92 -505.61)"/><path class="cls-25" d="M1186.87,621c0-1.81-3.68-1.76-5.09-1.09a1.87,1.87,0,0,0-1.27,1.8s.16,1.35,2.84,1.35C1186.31,623,1186.82,622.05,1186.87,621Z" transform="translate(-1036.92 -505.61)"/><path class="cls-25" d="M1180.51,621.51l.06-1.22,6.36-.61-.06,1.31-1.87,1.16Z" transform="translate(-1036.92 -505.61)"/><path class="cls-26" d="M1186.93,619.72c0-1.8-3.68-1.76-5.09-1.09a1.86,1.86,0,0,0-1.25,1.82s.16,1.33,2.82,1.33C1186.39,621.8,1186.88,620.8,1186.93,619.72Z" transform="translate(-1036.92 -505.61)"/><path class="cls-22" d="M1182.55,620.14s0,.79,1.68.42c.78-.16.8-.71.8-.71l1.69-16.79-2.55,1.11Z" transform="translate(-1036.92 -505.61)"/><path class="cls-21" d="M1169.49,595.74c0,1,.68,1.36,1.58.87a3.3,3.3,0,0,0,1.11-1.12,3.4,3.4,0,0,0,.48-1.51c0-1-.68-1.37-1.59-.87a3.4,3.4,0,0,0-1.11,1.12A3.23,3.23,0,0,0,1169.49,595.74Z" transform="translate(-1036.92 -505.61)"/><path class="cls-21" d="M1169.93,596.72l8.12,4.69,2.14-3.74-8.08-4.68Z" transform="translate(-1036.92 -505.61)"/><path class="cls-27" d="M1177.59,600.41c0,1,.68,1.37,1.58.88a3.34,3.34,0,0,0,1.59-2.64c0-1-.7-1.36-1.59-.87a3.37,3.37,0,0,0-1.58,2.63Z" transform="translate(-1036.92 -505.61)"/><path class="cls-21" d="M1178.15,600.37c0,.76.53,1.06,1.2.68a2.65,2.65,0,0,0,.84-.89,2.57,2.57,0,0,0,.35-1.17c0-.76-.52-1.06-1.19-.68a2.58,2.58,0,0,0-1.2,2.06Z" transform="translate(-1036.92 -505.61)"/><path class="cls-21" d="M1178.5,601.13l5,2.88,1.7-2.93-5-2.87Z" transform="translate(-1036.92 -505.61)"/><path class="cls-27" d="M1183.14,603.24c0,.76.54,1.06,1.19.68a2.68,2.68,0,0,0,.85-.89,2.57,2.57,0,0,0,.35-1.17c0-.77-.54-1.08-1.2-.69a2.75,2.75,0,0,0-.84.89A2.57,2.57,0,0,0,1183.14,603.24Z" transform="translate(-1036.92 -505.61)"/><path class="cls-21" d="M1182.39,603.24c0,1,.69,1.34,1.59.87a3.56,3.56,0,0,0,1.11-1.14,3.48,3.48,0,0,0,.48-1.51c0-1-.69-1.36-1.59-.87a3.36,3.36,0,0,0-1.12,1.13A3.51,3.51,0,0,0,1182.39,603.24Z" transform="translate(-1036.92 -505.61)"/><path class="cls-21" d="M1182.84,604.2l3.52,2.08,2.16-3.74-3.51-2.06Z" transform="translate(-1036.92 -505.61)"/><path class="cls-27" d="M1185.9,605.28c0,1,.69,1.36,1.58.87a3.22,3.22,0,0,0,1.11-1.12,3.4,3.4,0,0,0,.48-1.51c0-1-.68-1.36-1.59-.87a3.33,3.33,0,0,0-1.58,2.63Z" transform="translate(-1036.92 -505.61)"/><path class="cls-21" d="M1186.66,605.33c0,.76.54,1.06,1.19.68a2.59,2.59,0,0,0,.85-.89,2.53,2.53,0,0,0,.35-1.17c0-.76-.53-1.06-1.2-.68a2.56,2.56,0,0,0-.84.89A2.53,2.53,0,0,0,1186.66,605.33Z" transform="translate(-1036.92 -505.61)"/><path class="cls-21" d="M1187,606.1l5.43,3.14,1.7-2.93-5.44-3.12Z" transform="translate(-1036.92 -505.61)"/><path class="cls-27" d="M1192.1,608.47c0,.76.54,1.06,1.19.68a2.59,2.59,0,0,0,.85-.89,2.53,2.53,0,0,0,.35-1.17c0-.76-.54-1.06-1.2-.68a2.47,2.47,0,0,0-.84.89A2.5,2.5,0,0,0,1192.1,608.47Z" transform="translate(-1036.92 -505.61)"/><path class="cls-21" d="M1190.92,608.17c0,1,.69,1.36,1.59.87a3.39,3.39,0,0,0,1.11-1.12,3.26,3.26,0,0,0,.47-1.51c0-1-.68-1.37-1.58-.88a3.25,3.25,0,0,0-1.11,1.13A3.36,3.36,0,0,0,1190.92,608.17Z" transform="translate(-1036.92 -505.61)"/><path class="cls-21" d="M1191.34,609.15l8.11,4.69,2.14-3.74-8.08-4.68Z" transform="translate(-1036.92 -505.61)"/><path class="cls-27" d="M1199,612.84c0,1,.68,1.37,1.59.87a3.27,3.27,0,0,0,1.1-1.12,3.36,3.36,0,0,0,.48-1.51c0-1-.7-1.36-1.58-.87a3.25,3.25,0,0,0-1.11,1.13A3.32,3.32,0,0,0,1199,612.84Z" transform="translate(-1036.92 -505.61)"/><path class="cls-20" d="M1179.3,674.75,1177.16,691l2.33-1,2.35-16.37Z" transform="translate(-1036.92 -505.61)"/><path class="cls-28" d="M1179.44,593.68v2.37a4.33,4.33,0,0,1,0,.72c-.08.63-2.17,2.8-2.17,2.8l-1.58.62s-1,.54-1.34.37c-.23-.18-.17-.65-.14-.78v-.25l-.17-.34-.18.15a.81.81,0,0,1-.57.15.2.2,0,0,1-.11,0,.24.24,0,0,1-.09-.08,1.2,1.2,0,0,1-.29-.38c0-.1-.09-.21-.13-.31s-.49.31-.69.25-.37-.65-.56-1.09-.17-.5-.17-.5l-.22-.09a1.32,1.32,0,0,1-.56-.4,17.25,17.25,0,0,1-.66-2.93c0-.54,1.77-1.47,2.45-1.86a14.47,14.47,0,0,0,1.79-1.44l3.71-1.2,1.29,1.73Q1179.31,592.41,1179.44,593.68Z" transform="translate(-1036.92 -505.61)"/><path class="cls-29" d="M1177.64,596.2a.48.48,0,0,1,0,.17,3,3,0,0,1-.45,1.08c-.18.35-.39.67-.58,1a1.38,1.38,0,0,1-.14.24,1.91,1.91,0,0,1-.27.16c-.69.32-1.35.63-2.06.89v-.13l1.34-.52a1.43,1.43,0,0,0,.73-.45,1.36,1.36,0,0,0,.21-.79,7.2,7.2,0,0,0-.14-1.39,1.61,1.61,0,0,1,0-1,2.34,2.34,0,0,0,.46.19.53.53,0,0,0,.25,0c.25,0,.32-.41.51-.59a1.48,1.48,0,0,0,.14.95A.27.27,0,0,0,1177.64,596.2Z" transform="translate(-1036.92 -505.61)"/><path class="cls-29" d="M1179.52,596.09a4.21,4.21,0,0,1,0,.71c-.07.63-2.17,2.81-2.17,2.81l-1.58.61s-1,.54-1.33.37a3.83,3.83,0,0,0,1.18-.4,16,16,0,0,1,1.75-.77,2.81,2.81,0,0,0,1.06-1l.1-.11a10,10,0,0,0,.69-1.13A2.92,2.92,0,0,1,1179.52,596.09Z" transform="translate(-1036.92 -505.61)"/><path class="cls-29" d="M1171.14,596.83a3.2,3.2,0,0,0,.09.92c-.09-.28-.17-.49-.17-.49l-.22-.1v-.65a11.75,11.75,0,0,1-.14-2.29c.2.63.17,1.33.34,2A4.58,4.58,0,0,1,1171.14,596.83Z" transform="translate(-1036.92 -505.61)"/><path class="cls-29" d="M1172.86,599.26v.11a1.49,1.49,0,0,1-.28-.38.81.81,0,0,0,0-.22,4.33,4.33,0,0,0-.25-.88,8,8,0,0,1-.18-1.09l-.19-1.59c.19.84.37,1.68.54,2.54A13,13,0,0,1,1172.86,599.26Z" transform="translate(-1036.92 -505.61)"/><path class="cls-29" d="M1174,599.46l-.18-.33-.17.14a15.5,15.5,0,0,1,0-3.85A36.5,36.5,0,0,1,1174,599.46Z" transform="translate(-1036.92 -505.61)"/><path class="cls-30" d="M1195.78,540s.12,2.55.2,5.45a58.77,58.77,0,0,1,0,8.18c-.43,1.59-2.15,8.44-4.21,14.27a70,70,0,0,1-6.65,12.68c-.77,1.35-4.94,12.68-4.94,12.68l-.65.5s-.42-.56-.91-1.11a5.53,5.53,0,0,0-1.11-1,6.51,6.51,0,0,0-4.48-.19c0-.68,4.86-15.2,5.74-17.33s3.74-9.08,4.48-10.79,5.3-16.87,6-18.76,2-8,6.42-7.92Z" transform="translate(-1036.92 -505.61)"/><path class="cls-31" d="M1182.06,567.3c-.43.93-.63,2.88-1,3.83-1.82,4.52-3.64,9-5.15,13.65-.33,1.05-.65,2.08-1,3.17a1.4,1.4,0,0,0-.11.53,1.31,1.31,0,0,0,.11.52,1.14,1.14,0,0,0,.67.4,10.87,10.87,0,0,0,2.19.5.69.69,0,0,0,.49,0,.79.79,0,0,0,.36-.46c.52-1.12,1-2.23,1.59-3.36.41-.88.82-1.79,1.15-2.72s.51-1.72.81-2.56a23.88,23.88,0,0,1,1.59-3.4,50.48,50.48,0,0,0,5.1-11.1,4.48,4.48,0,0,0,.27-1.85,4.53,4.53,0,0,0-.5-1.8,1.82,1.82,0,0,0-.45-.58,1.79,1.79,0,0,0-.63-.36,1.93,1.93,0,0,0-.72-.08,2,2,0,0,0-.69.21,7.76,7.76,0,0,0-2.51,2.22A32.47,32.47,0,0,0,1182.06,567.3Z" transform="translate(-1036.92 -505.61)"/><path class="cls-29" d="M1196,545.45a58.77,58.77,0,0,1,0,8.18c-.43,1.59-2.15,8.44-4.21,14.27a70,70,0,0,1-6.65,12.68c-.77,1.35-4.94,12.68-4.94,12.68l-.65.5s-.42-.56-.91-1.11c.19-.5.37-1,.54-1.59a47.21,47.21,0,0,1,4.47-10c.78-1.19,1.59-2.35,2.36-3.55a46.31,46.31,0,0,0,4.28-10.35,26.51,26.51,0,0,0,1.13-4.17,48,48,0,0,0,.13-7.49,13.6,13.6,0,0,1,.9-5.75A14,14,0,0,1,1196,545.45Z" transform="translate(-1036.92 -505.61)"/><path class="cls-31" d="M1189.62,545.26a17.89,17.89,0,0,0-1,3.27,86.42,86.42,0,0,1-5.18,15.14,3,3,0,0,0-.37,1.3,2.28,2.28,0,0,0,.48,1.06,2.23,2.23,0,0,0,1,.68,3.92,3.92,0,0,0,1.51.39,3.79,3.79,0,0,0,1.53-.25c2.68-1.07,2.43-6,2.7-8.4a38.17,38.17,0,0,1,3-10.89c1.13-2.5,2.55-5,2.57-7.75a.44.44,0,0,0,0-.32.43.43,0,0,0-.4,0,5,5,0,0,0-2.93,2.08A18,18,0,0,0,1189.62,545.26Z" transform="translate(-1036.92 -505.61)"/><path class="cls-21" d="M1177.59,600.41a3.32,3.32,0,0,1,.48-1.5,3.25,3.25,0,0,1,1.11-1.13,1.07,1.07,0,0,1,.52-.2,1.09,1.09,0,0,1,.56.09l-3.46-2a6.71,6.71,0,0,0-1,1.92,7.41,7.41,0,0,0-.1,2.44l2.38,1.37a1.08,1.08,0,0,1-.4-.42A1,1,0,0,1,1177.59,600.41Z" transform="translate(-1036.92 -505.61)"/><path class="cls-32" d="M1226.4,647.91a2,2,0,0,1,.71.57,2.18,2.18,0,0,1,.39.81,5.54,5.54,0,0,1,0,2.07c-.18.7-2.9,1.89-3.6,2.22a3.48,3.48,0,0,1-1.38.32h-1.13l-2.25,2.59a10.05,10.05,0,0,1-3.26,2.28c-2.51,1.27-6,1.2-7.82,1.46s0-4,0-4l10.21-6.93Z" transform="translate(-1036.92 -505.61)"/><path class="cls-22" d="M1225.33,643.44a30.69,30.69,0,0,1,1.88,5.85c-.14.92-2.25,2.33-4,2.81a7.79,7.79,0,0,0-3.54,2.9,15.68,15.68,0,0,1-5.74,3.42,3.74,3.74,0,0,1-2.33.31,3.8,3.8,0,0,1-2.06-1.15,3.66,3.66,0,0,1-.62-4c.48-1.13,6.35-5.46,6.87-6.08s3.17-3,3.17-3Z" transform="translate(-1036.92 -505.61)"/><path class="cls-33" d="M1226.4,646.82s-1.23,2.33-2.61,2.47a17.51,17.51,0,0,1-3.76-.19c-1.46-.24-2.79-.65-3-1.33s-1.84-7.68-3.35-14.14c-1.35-5.92-2.62-4.76-2.62-4.76s-9.51-18.31-11.69-26a47.32,47.32,0,0,1-1.59-19.62l14.08-.94,3.17,10.77,5,23.3a67.37,67.37,0,0,0,2,12.14C1223.57,632.93,1226.4,646.82,1226.4,646.82Z" transform="translate(-1036.92 -505.61)"/><path class="cls-34" d="M1207.24,606c-3.3-1.71-2-10.4-1.59-13h.44l-.41-.1.51-.33.33.52c-.87,4.87-1.11,11,1.1,12.1Z" transform="translate(-1036.92 -505.61)"/><path class="cls-4" d="M1223.36,649.32s-.81-6.34-1.16-8.34a25.69,25.69,0,0,0-.9-3,48.47,48.47,0,0,1-2.53-9.92c-.23-2.13-.53-4.76-.8-7.28-.42-3.88-.86-7.92-1-8.37l.86-.19c.11.48.44,3.52,1,8.47.27,2.5.55,5.15.81,7.27a47.33,47.33,0,0,0,2.47,9.74,25.29,25.29,0,0,1,.94,3.07c.36,2,1.12,8.12,1.17,8.39Z" transform="translate(-1036.92 -505.61)"/><path class="cls-29" d="M1220,649.07c-1.46-.24-2.79-.65-3-1.33s-1.84-7.68-3.34-14.15c.23-2.61.25,1.4.27-1.23a5.48,5.48,0,0,0-.21-2,5.17,5.17,0,0,0-.93-1.5,19,19,0,0,1-2.49-3.17,49.93,49.93,0,0,1-1.68-5,11.09,11.09,0,0,1-1-2.18,79.82,79.82,0,0,1-.71-14.74,14.17,14.17,0,0,1,.16-2.52,8.21,8.21,0,0,1,1-2.71.81.81,0,0,1,.17-.24.94.94,0,0,1,.26-.14c.3,0,.49.3.59.58a44.18,44.18,0,0,1,1.58,8.9,26.45,26.45,0,0,0,.94,4.75,28.28,28.28,0,0,0,1.77,3.73c3.17,6.34,4.35,13.4,5.46,20.37.5,3.17,1-.21,1.26,3A58.32,58.32,0,0,1,1220,649.07Z" transform="translate(-1036.92 -505.61)"/><path class="cls-32" d="M1212.78,659.72a3.1,3.1,0,0,1,1.7,1.74,13.9,13.9,0,0,1,0,2.19,22.92,22.92,0,0,1-2.79,2.51,4.58,4.58,0,0,1-1.24.54h-.55s-3.59,4.59-6,5.8a15.21,15.21,0,0,1-8.57.81c-2.17-.48-2.06-2-2.06-2a5.52,5.52,0,0,1,1.41-2c.79-.55,8.29-6.83,8.29-6.83Z" transform="translate(-1036.92 -505.61)"/><path class="cls-22" d="M1203.48,657c-.73,1.08-3.77,5.23-4.36,5.88s-4.75,6-5.09,6.8a1.76,1.76,0,0,0-.25.89,1.73,1.73,0,0,0,.25.89c.34.41,2.44,1.46,5.88.81a11.94,11.94,0,0,0,6.44-2.92c1.32-1.19,3.17-4,4.14-4.68a14.09,14.09,0,0,0,3.45-2.94,17.62,17.62,0,0,0-1.09-5.27C1212.53,655.76,1203.48,657,1203.48,657Z" transform="translate(-1036.92 -505.61)"/><path class="cls-33" d="M1207,587.79c-.13,1.35-.57,10.55,0,11.56a5.68,5.68,0,0,0,2.39,1.75s-2.39,21-2.61,23.3a106.43,106.43,0,0,1-.65,15c-.49,3.65-3.49,18.11-3.41,19s3.17,2.25,6.17,2.41,3.93-.16,4-.73,4-16,4.86-23.34,1.59-6.89,2.48-9.86,4.93-17.66,6.16-24.19a65.55,65.55,0,0,0,1.68-13.52,63.23,63.23,0,0,0-1.68-11.78C1226,575.48,1207,587.79,1207,587.79Z" transform="translate(-1036.92 -505.61)"/><path class="cls-4" d="M1212.35,660.89l-.85-.15c0-.13,2.28-12,3.58-19.41a45.43,45.43,0,0,1,1.33-6.1,32.75,32.75,0,0,0,1.08-5c.81-4.91,4.2-17.12,6-23.67.54-1.92.93-3.34,1.11-4,.7-2.73,0-16.36,0-16.51h.87c0,.57.71,13.91,0,16.78-.17.65-.57,2.07-1.11,4-1.81,6.53-5.2,18.7-6,23.57a34.2,34.2,0,0,1-1.1,5.09,45.36,45.36,0,0,0-1.31,6C1214.7,648.89,1212.37,660.77,1212.35,660.89Z" transform="translate(-1036.92 -505.61)"/><path class="cls-35" d="M1218.06,592.17a11.81,11.81,0,0,0-2.76,2.17,10.62,10.62,0,0,0-1.68,1.92,8.91,8.91,0,0,0-.88,2.44c-.54,2.19-.92,4.43-1.29,6.66-1.28,7.63-2.57,15.25-3.55,22.91a6.55,6.55,0,0,0,1.33,5.67,3.94,3.94,0,0,0,1.13,1.27,3,3,0,0,0,2.2.22,5.74,5.74,0,0,0,3.68-2.77,12.62,12.62,0,0,0,1.11-4.47c1.11-8.05,3.88-15.85,5.93-23.67a37,37,0,0,0,1.09-5.53,11.08,11.08,0,0,0-1.31-5.23c-.69.69-.83-1-1.11-1.38C1221,591.33,1219.14,591.65,1218.06,592.17Z" transform="translate(-1036.92 -505.61)"/><path class="cls-4" d="M1219.54,597a6,6,0,0,1-5.14-2.11,3.85,3.85,0,0,1-.85-3.17l.73.49-.37-.25.41.13a4,4,0,0,0,.35,1.56,3.78,3.78,0,0,0,1,1.27c1.24,1.07,3.9,1.95,9.51.12l.27.82A19.35,19.35,0,0,1,1219.54,597Z" transform="translate(-1036.92 -505.61)"/><path class="cls-4" d="M1198,593.5a2,2,0,0,1-.59-.11l.29-.82a.72.72,0,0,0,.32.08.76.76,0,0,0,.33-.08c.69-.45,1-2.11,1.09-2.67l.86.1c0,.27-.3,2.57-1.49,3.31A1.54,1.54,0,0,1,1198,593.5Z" transform="translate(-1036.92 -505.61)"/><path class="cls-36" d="M1197.45,589.08a14.63,14.63,0,0,0,9.29,4,33.65,33.65,0,0,0,14.37-3.17c3.69-1.75,6.46-2.79,6.7-4.52a15.9,15.9,0,0,0-1.41-5.5l-14.87,2.85-13.84,2Z" transform="translate(-1036.92 -505.61)"/><path class="cls-33" d="M1199.58,593.07a18,18,0,0,1-.7-5.74h1.75a16.22,16.22,0,0,0,.63,5.19Z" transform="translate(-1036.92 -505.61)"/><path class="cls-37" d="M1212,594.5a36.29,36.29,0,0,1-.54-6.25h1.68a37.31,37.31,0,0,0,.52,6Z" transform="translate(-1036.92 -505.61)"/><path class="cls-30" d="M1230.1,544.88l-3.38,4L1222.63,567s4.12,14.59,3,16.24c-.85,1.25-2.85,2.25-5.81,3.41-.92.36-1.95.74-3.06,1.14-4.65,1.69-9.29,1.11-10.9,1.41s-8.14-2.19-8.64-3.54a40.83,40.83,0,0,1-1.74-7.56c-.19-2.38-3.72-11.92-4.3-17.06s-.82-18.7,0-20.61,5-4.86,7.34-5.29,13.91-3.17,14.94-2.79c5.42,1.69,7.93,5.18,11.21,7.16S1230.24,544.53,1230.1,544.88Z" transform="translate(-1036.92 -505.61)"/><path class="cls-33" d="M1226.35,589a12.31,12.31,0,0,0-1.68-5.91l1.51-.89a13.94,13.94,0,0,1,1.92,6.77Z" transform="translate(-1036.92 -505.61)"/><path class="cls-29" d="M1209.09,532.67l-1.08,1.59a4,4,0,0,1-.88,1,4.17,4.17,0,0,1-.92.46,7.22,7.22,0,0,1-4.41.09,1,1,0,0,1-.37-.17,1.15,1.15,0,0,1-.25-.37,3.21,3.21,0,0,1-.3-1.7,4.32,4.32,0,0,1,1.58-2.5,7.86,7.86,0,0,1,3.3-2,5,5,0,0,1,1.92-.08,4.77,4.77,0,0,1,1.79.69C1210.49,530.58,1209.65,531.88,1209.09,532.67Z" transform="translate(-1036.92 -505.61)"/><path class="cls-31" d="M1203.46,589.19c-.27-2-.62-4.58-.92-6.72-.54-4-.55-4.14-.55-4.27v-.46c-.67-7.53-1.37-17.43-.78-21.41.76-5.38,3.41-15.21,3.52-15.63l1.68.46c0,.09-2.73,10.14-3.47,15.4-.45,3.05-.16,10.51.79,21v.6s.25,1.87.54,4,.65,4.76.92,6.74Z" transform="translate(-1036.92 -505.61)"/><path class="cls-31" d="M1206.6,553.28l-.54,10,5.77,2.84,4.16-2,.93-9.67Z" transform="translate(-1036.92 -505.61)"/><path class="cls-29" d="M1222.63,567s4.12,14.59,3,16.24c-.86,1.25-2.85,2.25-5.82,3.41a2,2,0,0,1-.71-1.1c-.3-2.33-.62-4.66-.92-7a25.52,25.52,0,0,1-.3-3v-2.7c0-.9.09-2.09.16-3.17s.11-2.42.17-3.63a87.68,87.68,0,0,1,1.25-11.32,46.85,46.85,0,0,1,1.41-5.48,3.17,3.17,0,0,1,3.27-2,2.51,2.51,0,0,1,1.08.21,2.57,2.57,0,0,1,.9.63,3.4,3.4,0,0,1,.49.76Z" transform="translate(-1036.92 -505.61)"/><path class="cls-38" d="M1201.34,530.14a51.29,51.29,0,0,1,1.74,7.84c0,1,1.13,3.32,4.76,2.11s6.34-5.53,6.34-6.83a38.66,38.66,0,0,0-1.3-5.71s1.35-10.35,1.3-10.52-3.17,3.17-6.11,6.24S1201.34,530.14,1201.34,530.14Z" transform="translate(-1036.92 -505.61)"/><path class="cls-31" d="M1202.26,533.56a4.44,4.44,0,0,0-1.73,3.63,51.32,51.32,0,0,0,.81,6.17s2.5-1.67,2.72-1.75.8.27.8.27,2.25,2,2.44,2a17,17,0,0,0,2.39-1.34s5.71-7,6-9-2.1-3.63-2.1-3.63v2c-1.09,1.73-2.27,3.39-3.52,5a14.5,14.5,0,0,1-4.87,2.71c-1.09.2-1.86-1.59-1.86-1.59Z" transform="translate(-1036.92 -505.61)"/><path class="cls-39" d="M1212.42,515c0,1.92-.4,12.21-1.17,14.27s-5.77,5-7.44,5.64a4.82,4.82,0,0,1-1.76.37,5.38,5.38,0,0,1-1.89-.37,42.63,42.63,0,0,1-2.06-4.18c-.44-1.24-1.34-7-1.76-8.8v-.29a17.83,17.83,0,0,1,.29-6.94c.55-1.19.55-1.16,6.34-3.17S1212.42,513.06,1212.42,515Z" transform="translate(-1036.92 -505.61)"/><path class="cls-40" d="M1211.15,522.32h-1.46s-1.31-2.47-1.9-3.3a17.28,17.28,0,0,1-1.22-4l-2.33-1.74a5.09,5.09,0,0,1-2.73,1.49,16.88,16.88,0,0,1-4.36-.51l-1.08,2.39v2.81a11.47,11.47,0,0,1-.73-3.57c0-1.44-1.68-5,4.14-8.27a11.1,11.1,0,0,1,11.34.62s2.25-.42,4.22,2.87,0,10.68,0,10.68l-1.59,3.17s1.24-4.76-.11-5.06a3,3,0,0,0-2,.08Z" transform="translate(-1036.92 -505.61)"/><path class="cls-21" d="M1214,519.33a27.13,27.13,0,0,1-1.58,7.75,12.44,12.44,0,0,1-2.28,2.47s-1.1,2.6-.43,2.2a14.09,14.09,0,0,0,3.17-3.58,21.24,21.24,0,0,0,2.06-7.32,11.63,11.63,0,0,0,.16-3.17Z" transform="translate(-1036.92 -505.61)"/><path class="cls-41" d="M1211.4,522.65a2.12,2.12,0,0,1,.39-1.24,2.08,2.08,0,0,1,1-.78c1.43-.35,1.22,1.28,1.22,1.8a21.92,21.92,0,0,1-1.08,3.36c-.27.81-.51.83-1,.83s-.74-.24-.76-1.35A25.64,25.64,0,0,1,1211.4,522.65Z" transform="translate(-1036.92 -505.61)"/><path class="cls-29" d="M1202,535.34a5.29,5.29,0,0,1-1.88-.37,40.58,40.58,0,0,1-2.07-4.18c-.44-1.24-1.34-7-1.76-8.8a10.28,10.28,0,0,0,3.06,1.42,20.82,20.82,0,0,1-.87,4.9,1,1,0,0,0,0,.35c0,.48.73.53,1,.87s-.16,1.59.36,2.22c.12.15.29.23.4.37a1.24,1.24,0,0,1,.1.71,2.48,2.48,0,0,0,.12,1.59,2,2,0,0,0,1.3.74h.16a.36.36,0,0,1,0,.09A.28.28,0,0,1,1202,535.34Z" transform="translate(-1036.92 -505.61)"/><path class="cls-42" d="M1203.4,608.12c-.48,1-2.65,2.09-2.81,2.25a10.22,10.22,0,0,0-.52,1.71.42.42,0,0,1-.21.16,1.72,1.72,0,0,1-.8.17,1.57,1.57,0,0,1-.64-.14,1.52,1.52,0,0,1-.52-.38.35.35,0,0,1-.08-.13l-.26.16a1.39,1.39,0,0,1-.93.19,1.41,1.41,0,0,1-.86-.38.67.67,0,0,1-.23.1,1.4,1.4,0,0,1-.86,0,1.32,1.32,0,0,1-.54-.33,1.3,1.3,0,0,1-.32-.54h-.73c-.49,0-1.26-.24-1.26-.54a14.9,14.9,0,0,1,0-1.89,10.44,10.44,0,0,1,1.42-3.33,42.21,42.21,0,0,1,4.49-1.76,19.05,19.05,0,0,0,1.87-.92l4.34,1.59a15.11,15.11,0,0,1-.23,2.5A7,7,0,0,1,1203.4,608.12Z" transform="translate(-1036.92 -505.61)"/><path class="cls-29" d="M1193.62,609.89a6.49,6.49,0,0,0,0,1.08h-.57a10.83,10.83,0,0,1,.46-2.71.48.48,0,0,1,.38-.44,2.7,2.7,0,0,1-.19.84A7.26,7.26,0,0,0,1193.62,609.89Z" transform="translate(-1036.92 -505.61)"/><path class="cls-29" d="M1195.77,610.86a4.22,4.22,0,0,0,0,.87.67.67,0,0,1-.23.1,14.59,14.59,0,0,1,.52-3C1196,609.5,1195.85,610.18,1195.77,610.86Z" transform="translate(-1036.92 -505.61)"/><path class="cls-29" d="M1197.88,610.61a3.93,3.93,0,0,0,0,1.28.33.33,0,0,1-.07-.13l-.26.16a1.5,1.5,0,0,1,0-.3,2.84,2.84,0,0,1,.11-1,1.59,1.59,0,0,1,.29-.81A1.73,1.73,0,0,1,1197.88,610.61Z" transform="translate(-1036.92 -505.61)"/><path class="cls-29" d="M1203.4,608.12c-.48,1-2.65,2.09-2.81,2.25a10.22,10.22,0,0,0-.52,1.71.42.42,0,0,1-.21.16v-.13a8.38,8.38,0,0,0,.16-1.58.71.71,0,0,1,0-.29,1.42,1.42,0,0,1,.24-.25l1.84-1.59a4.16,4.16,0,0,0,1.25-1.42l.25-.38A6.54,6.54,0,0,1,1203.4,608.12Z" transform="translate(-1036.92 -505.61)"/><path class="cls-30" d="M1230.89,557.44a119.34,119.34,0,0,1-1.59,13.85,3.26,3.26,0,0,1-.16.79c-.3,1.51-.71,3.17-.82,3.67v.11a80.16,80.16,0,0,1-2.9,8.67c-.68,1.66-12.87,17-13.56,17.44s-3.67,2.71-4,2.9-4.53,3.36-4.53,3.36V608a14.26,14.26,0,0,0-.41-1.59,9.94,9.94,0,0,0-4-3.26.7.7,0,0,1-.32-.24c-3.28,2.9,19.3-26.7,19.34-28.54s1.46-14.42,2.43-21.35a1.71,1.71,0,0,1,0-.32c1-6.66,3.17-8.1,6.34-9.07a7.1,7.1,0,0,1,2.39.08,3.22,3.22,0,0,1,1,1.15,3.08,3.08,0,0,1,.36,1.48A85.58,85.58,0,0,1,1230.89,557.44Z" transform="translate(-1036.92 -505.61)"/><path class="cls-31" d="M1226.78,573.5a51.47,51.47,0,0,0,2.51-11,38.1,38.1,0,0,0,.49-7.07V550a21.76,21.76,0,0,0,0-4.42,1.16,1.16,0,0,0-.15-.52,1.32,1.32,0,0,0-.38-.4,1.38,1.38,0,0,0-.52-.17,1.26,1.26,0,0,0-.54.09,6.37,6.37,0,0,0-3.17,1.11,7.47,7.47,0,0,0-2.49,3.44,47.88,47.88,0,0,0-.84,6.75c-.22,3.41-.76,6.23-1,9.64-.19,3-.85,4.38-.2,7.34a3.31,3.31,0,0,0,4.37,2.4,2.83,2.83,0,0,0,1.21-.48A2.55,2.55,0,0,0,1226.78,573.5Z" transform="translate(-1036.92 -505.61)"/><path class="cls-31" d="M1218.49,577.4c-.4,1.11-14.93,22.19-18.55,25.76l3.52,2.31a1.42,1.42,0,0,0,.65.29,1.35,1.35,0,0,0,.92-.43c1.59-1.33,3.17-4,4.88-5.34a257.6,257.6,0,0,0,15.22-20.91,17.33,17.33,0,0,0,1.59-3.27,13.71,13.71,0,0,0,.38-3.06c.16-3.36-3.9-3.41-5.8-1.58a5.88,5.88,0,0,0-1.29,2.23C1219.46,574.72,1219,576.05,1218.49,577.4Z" transform="translate(-1036.92 -505.61)"/><path class="cls-29" d="M1218.63,575.9c-.43,1-15,21.09-19.13,26.64-.19.22-.39.42-.6.62l-.32-.24c-3.28,2.9,19.29-26.7,19.34-28.54s1.46-14.42,2.42-21.35a1.71,1.71,0,0,0,0-.32,18.87,18.87,0,0,1-.11,2.46c-.11,3.8-1.58,13.76-1.25,15.85A8.3,8.3,0,0,1,1218.63,575.9Z" transform="translate(-1036.92 -505.61)"/><path class="cls-29" d="M1229.13,572.09c-.3,1.5-.72,3.17-.83,3.66v.11a80.16,80.16,0,0,1-2.9,8.67c-.68,1.66-12.87,17-13.55,17.44s-3.68,2.71-4,2.9-4.54,3.36-4.54,3.36V608l.41-.27a20.07,20.07,0,0,0,2.46-2.14,10.07,10.07,0,0,1,1.95-1.68c.6-.35,1.89-1.71,2.52-2.06-.54,0,13.78-17.68,14.66-19.72,1.59-3.71,2.42-4.4,3.18-8.23A12.74,12.74,0,0,1,1229.13,572.09Z" transform="translate(-1036.92 -505.61)"/><path class="cls-21" d="M1208.93,520.63c.7,1.49-.3,11-1.22,12.23a18.27,18.27,0,0,0,2.08-1,52.48,52.48,0,0,0,.89-6.61,27.59,27.59,0,0,0-.35-7Z" transform="translate(-1036.92 -505.61)"/><path class="cls-23" d="M1214.13,520.69a17,17,0,0,1-15.71,1.58c-4.61-1.87-6.1-4.88-1-8.29s14.88-5.93,19.5-4.06S1219.25,517.26,1214.13,520.69Z" transform="translate(-1036.92 -505.61)"/><path class="cls-23" d="M1213.91,519.12a17,17,0,0,1-7.66,2.74,16.77,16.77,0,0,1-8-1.16c-4.62-1.87-6.09-4.88-1-8.29s14.9-5.93,19.52-4.07S1219,515.71,1213.91,519.12Z" transform="translate(-1036.92 -505.61)"/><path class="cls-20" d="M1213.12,518.82a16.18,16.18,0,0,1-14.91,1.46c-4.36-1.78-5.77-4.63-.92-7.93s14.11-5.61,18.49-3.85S1218,515.59,1213.12,518.82Z" transform="translate(-1036.92 -505.61)"/><path class="cls-20" d="M1214.7,517.6c-3.83,3.82-20.4-1-20.4-1s-.22-5.81,3.49-8.33c7.15-4.75,13.93-2.15,18-.49S1219.78,512.54,1214.7,517.6Z" transform="translate(-1036.92 -505.61)"/><path class="cls-21" d="M1214.4,512.06c-1.27-.54-3.88.27-5.41,4.19s3.29,0,4.76-1.09S1215.24,512.4,1214.4,512.06Z" transform="translate(-1036.92 -505.61)"/><path class="cls-21" d="M1210,507c-3.17-1.39-11.94,2.52-9.83,3.63a4.39,4.39,0,0,0,2.23.37,4.53,4.53,0,0,0,2.13-.79c2-.92,3.61-2.21,5.89-2.26S1210,507,1210,507Z" transform="translate(-1036.92 -505.61)"/><g class="cls-43"><path class="cls-44" d="M1158,737.94c14.69,8.49,14.77,22.24,0,30.72a58.57,58.57,0,0,1-53,0c-14.68-8.48-14.72-22.23,0-30.68a58.16,58.16,0,0,1,53,0Z" transform="translate(-1036.92 -505.61)"/></g><path class="cls-45" d="M1143.65,755.38s-1.53,3.65,3.65,4.5,7.59,4,9.5,3.91,3.61-1.41,1.32-3.53a66.6,66.6,0,0,0-9.51-6Z" transform="translate(-1036.92 -505.61)"/><path class="cls-45" d="M1120,756.32s-1.74,4.24,4.24,5.09,8.49,4.24,10.74,4.24,4.24-1.61,1.53-4a82.05,82.05,0,0,0-10.78-6.79Z" transform="translate(-1036.92 -505.61)"/><path class="cls-46" d="M1150.14,663.16s4.24,32.38,2.21,46.68-2.21,45.37-2.21,45.37a6.42,6.42,0,0,1-6.49,0s-5.9-22.88-3.4-32.34c2.38-8.83-4-23.3-5-36.16a79.48,79.48,0,0,0-2.42-13.79S1146.57,673.26,1150.14,663.16Z" transform="translate(-1036.92 -505.61)"/><path class="cls-46" d="M1136.73,672.7a222.91,222.91,0,0,1-3.78,39.18c-3.48,14.22-6.45,44.43-6.45,44.43s-4,2.3-6.53,0c0,0-2.64-24.78-.26-32.51,2.63-8.74,1.23-23.89-1.61-36.45a42.36,42.36,0,0,1,.55-18A24.19,24.19,0,0,0,1136.73,672.7Z" transform="translate(-1036.92 -505.61)"/><path class="cls-47" d="M1140.25,723.25c2.29-8.49-3.6-22.45-4.92-35,3.31,8.49,8.49,23.47,8.11,30a323.12,323.12,0,0,0,2.8,38.19,4.49,4.49,0,0,1-2.59-.93S1137.75,732.51,1140.25,723.25Z" transform="translate(-1036.92 -505.61)"/><path class="cls-47" d="M1119.71,723.72c2.63-8.74,1.23-23.9-1.61-36.46a42.32,42.32,0,0,1,.55-18s-.38,1.27,4.67,2.33c0,10.31,3.73,30.52,2.55,37A252.43,252.43,0,0,0,1122,757.2a3.84,3.84,0,0,1-2-1S1117.33,731.44,1119.71,723.72Z" transform="translate(-1036.92 -505.61)"/><path class="cls-48" d="M1150,647.75s.42,6.49,5.9,6,23.51-11.63,23.51-11.63-3.1-4-1.44-6.11C1177.94,636,1152.26,642.62,1150,647.75Z" transform="translate(-1036.92 -505.61)"/><path class="cls-48" d="M1148.53,617.15c-2.63-1.23-8.15.64-5.69,9s7.09,26.35,10.27,27.5,7.3.55,5-10.19S1155.11,619.87,1148.53,617.15Z" transform="translate(-1036.92 -505.61)"/><path class="cls-49" d="M1118.65,628.91s5.81-9.47,28-12c0,0,3.57-1.36,2.89,10.06a12.83,12.83,0,0,0,2.67,6c1.11,1.53,4,7.34-2.92,14a30,30,0,0,0,0,16.76c2.63,6-12.06,11.29-24.37,9.72-1.52,0-4.88-1.28-3.39-6.54a48.05,48.05,0,0,0,2.72-24.27C1122,632.81,1116.82,633.83,1118.65,628.91Z" transform="translate(-1036.92 -505.61)"/><path class="cls-50" d="M1118.65,628.91c-1.83,4.92,3.35,3.9,5.56,13.75a48.1,48.1,0,0,1-2.72,24.28c-1.49,5.26,1.87,6.36,3.39,6.53a37.8,37.8,0,0,0,6.2.26c-4.24-9.6,2-26.66,2.55-36.16a15.26,15.26,0,0,0-8.49-14.26A19.75,19.75,0,0,0,1118.65,628.91Z" transform="translate(-1036.92 -505.61)"/><path class="cls-51" d="M1139.49,622.54s15.91,9.85,1.91,92.69a23.06,23.06,0,0,0,12.22-8.91s-.68-35.91,0-46.43,3.69-48.51-11-42.44C1142.58,617.15,1134.73,619.87,1139.49,622.54Z" transform="translate(-1036.92 -505.61)"/><path class="cls-51" d="M1128.58,622s22.49,17.53,3.69,97.61c0,0-15,7.43-23.09-3.86,0,0,5.14-36,9-44.86,3.1-7.13,6.28-16.08-2.5-31.19C1115.72,639.52,1108.21,627.93,1128.58,622Z" transform="translate(-1036.92 -505.61)"/><path class="cls-48" d="M1140,623.47s10.78,14.94,6.53,50.55c0,0,3.61-28.22,5-31l-2.84-1.66,1.87-6.32a50.79,50.79,0,0,0-8-18.34Z" transform="translate(-1036.92 -505.61)"/><path class="cls-48" d="M1129,621.05s15.23,15.28,10.18,56.24c0,0-2.76-25.47-6.92-29.71l2.72-3.27-5.35-2.59s-3.86-14.68-9.72-16.12A19.59,19.59,0,0,1,1129,621.05Z" transform="translate(-1036.92 -505.61)"/><path class="cls-52" d="M1143.22,599.11s-1.74,11.38-2.75,22.24a3.38,3.38,0,0,0,.29,1.57,3.68,3.68,0,0,0,.94,1.3,3.63,3.63,0,0,0,1.41.75,3.46,3.46,0,0,0,1.6.07s8.49-12.73,2.38-25.46a12.24,12.24,0,0,0-13.33-6.36,12.19,12.19,0,0,0-4.8,2.12Z" transform="translate(-1036.92 -505.61)"/><path class="cls-7" d="M1145.09,614.14a10.41,10.41,0,0,0-2.36,4.46,10.6,10.6,0,0,0,0,5c.43,1.4,1.49,7.05-6.92,4.46,0,0-8.49-4.75-5.94-7.3,1.83-1.74,3.65-4.24,1.36-13.45Z" transform="translate(-1036.92 -505.61)"/><path class="cls-13" d="M1129.86,620.8a1.3,1.3,0,0,0-.47.85,15.8,15.8,0,0,0,13.79-3.65L1133,608.37l-1.36.93C1133.21,617.15,1131.55,619.19,1129.86,620.8Z" transform="translate(-1036.92 -505.61)"/><path class="cls-7" d="M1144.2,597.92s2.29.9,2.12,7.64c0,.77,1.15,1.79,1.4,3.65s.43,9.47-4,10.1a13.47,13.47,0,0,1-13.32-9.46C1128.11,602.17,1134.73,592.62,1144.2,597.92Z" transform="translate(-1036.92 -505.61)"/><path class="cls-53" d="M1143.69,600.64s-19.61,6.49-5.81,32a15.46,15.46,0,0,1-14.39-8.19c-2-4.25-.94-12.73,0-20.71,0,0,2.63-12.35,12.94-10.19C1136.39,593.51,1143.22,596.35,1143.69,600.64Z" transform="translate(-1036.92 -505.61)"/><path class="cls-52" d="M1143.69,600.64s3.44-.55,4.88,5.77c0,0,0-17.7-17-12.73C1131.68,593.55,1141.65,594.36,1143.69,600.64Z" transform="translate(-1036.92 -505.61)"/><path class="cls-7" d="M1134.31,611.29s-1.1-3.77-3.31-2.71c-.68.34-1.44,1.1-.47,3s3.06,3.78,4.76,3.61Z" transform="translate(-1036.92 -505.61)"/><path class="cls-54" d="M1119.11,629.46c-2.88-.43-7.64,2.93-2.88,10.23s14.3,23.25,17.69,23.47c2.76,0,7.13-1.57,1.87-11.21S1126.24,630.44,1119.11,629.46Z" transform="translate(-1036.92 -505.61)"/><path class="cls-55" d="M1160.2,654.24a23.17,23.17,0,0,1,8.49-2.8c2.16.51,4.24,0,1.57,2.34a20.87,20.87,0,0,1-10.15,4.62c-3.56.26-2.59-4.54-2.59-4.54Z" transform="translate(-1036.92 -505.61)"/><path class="cls-54" d="M1131,656.11s-1.66,6.28,3.73,7.56,25.93-3.74,25.93-3.74-1.69-4.75.56-6.24C1161.18,653.69,1134.74,651.82,1131,656.11Z" transform="translate(-1036.92 -505.61)"/><path class="cls-56" d="M1193.55,651.1l-.25-.51-6.75-13.83V625.3h-9.38v11.46l-6.66,13.62a2.94,2.94,0,0,0-.3.55c-.85,2.25.26,4.67,3.23,6.41a18.58,18.58,0,0,0,17,0C1193.3,655.81,1194.36,653.44,1193.55,651.1Z" transform="translate(-1036.92 -505.61)"/><path class="cls-57" d="M1191.48,650.3v-.39l-5.82-13.11V625h-7.47v11.68l-5.81,12.73c0,.25-.25.46-.34.68-.72,1.91.21,3.94,2.72,5.43a15.14,15.14,0,0,0,14.13,0C1191.23,654.2,1192.16,652.16,1191.48,650.3Z" transform="translate(-1036.92 -505.61)"/><path class="cls-58" d="M1192.58,651.1a4,4,0,0,0-.47-.8l-3.57-6.58h-13.32l-3.82,6.87c-1.06,2,0,4.25,2.8,6a17.56,17.56,0,0,0,15.53,0C1192.41,655.05,1193.38,652.88,1192.58,651.1Z" transform="translate(-1036.92 -505.61)"/><path class="cls-59" d="M1186.72,641.77c2.72,1.52,2.72,3.94,0,5.47a11.19,11.19,0,0,1-9.76,0c-2.71-1.53-2.71-4,0-5.47a11.19,11.19,0,0,1,9.76,0Z" transform="translate(-1036.92 -505.61)"/><path class="cls-60" d="M1173.44,657.55l.63.3,7.6-21,.21-11.51H1178V636.8l-8.11,15.66a5.89,5.89,0,0,0,1.05,3.06A5.82,5.82,0,0,0,1173.44,657.55Z" transform="translate(-1036.92 -505.61)"/><path class="cls-61" d="M1185.66,622.8c2,1.18,1.91,3.14,0,4.24a8,8,0,0,1-7.42,0c-2-1.19-2-3.1,0-4.24a8,8,0,0,1,7.42,0Z" transform="translate(-1036.92 -505.61)"/><path class="cls-62" d="M1181.8,627.21a6.85,6.85,0,0,1-3.4-.81c-.72-.46-1.14-1-1.1-1.52a2,2,0,0,1,1.23-1.53,6.69,6.69,0,0,1,3.31-.77,7.07,7.07,0,0,1,3.4.81,2,2,0,0,1,.75.62,2,2,0,0,1,.35.91c0,.55-.47,1.1-1.23,1.53A6.91,6.91,0,0,1,1181.8,627.21Z" transform="translate(-1036.92 -505.61)"/><path class="cls-63" d="M1178.53,624a7.3,7.3,0,0,1,3.31-.76,6.64,6.64,0,0,1,3.4.85,2.26,2.26,0,0,1,1.06,1.14v-.29a1.9,1.9,0,0,0-.36-.91,1.93,1.93,0,0,0-.74-.62,7.07,7.07,0,0,0-3.4-.81,6.69,6.69,0,0,0-3.31.77c-.81.42-1.23,1-1.23,1.53a1.21,1.21,0,0,0,0,.38,2.18,2.18,0,0,1,.5-.77A2.35,2.35,0,0,1,1178.53,624Z" transform="translate(-1036.92 -505.61)"/><path class="cls-64" d="M1176.54,626.4v-1.48a2.56,2.56,0,0,0,.45,1.24,2.63,2.63,0,0,0,1,.84,8.12,8.12,0,0,0,7.43,0,2.55,2.55,0,0,0,1.12-.88,2.49,2.49,0,0,0,.49-1.33v1.48a2.49,2.49,0,0,1-.49,1.34,2.53,2.53,0,0,1-1.12.87,8,8,0,0,1-7.43,0,2.65,2.65,0,0,1-1-.84A2.45,2.45,0,0,1,1176.54,626.4Z" transform="translate(-1036.92 -505.61)"/><path class="cls-65" d="M1178.91,647.88a2.51,2.51,0,0,1-1.41,1.13,2.47,2.47,0,0,1-1.81-.16,2.4,2.4,0,0,1,0-3.39,2.11,2.11,0,0,1,.53-.84,2.17,2.17,0,0,1,.85-.51,2.08,2.08,0,0,1,1-.06,2.05,2.05,0,0,1,.91.39,2.09,2.09,0,0,1,.64.77,2.13,2.13,0,0,1,.21,1,2.06,2.06,0,0,1-.25,1A2,2,0,0,1,1178.91,647.88Z" transform="translate(-1036.92 -505.61)"/><path class="cls-65" d="M1177.94,651.65c-.26.68-.85,1.06-1.36.85a1.18,1.18,0,0,1-.47-1.57,1.13,1.13,0,0,1,1.4-.8,1.15,1.15,0,0,1,.43,1.52Z" transform="translate(-1036.92 -505.61)"/><path class="cls-55" d="M1190.12,637s-6.2-2.16-5.56,1.06S1188.21,647.11,1190.12,637Z" transform="translate(-1036.92 -505.61)"/></svg>