<svg id="Layer_1" data-name="Layer 1" xmlns="http://www.w3.org/2000/svg" viewBox="0 0 338.19 282.27"><defs><style>.cls-1{opacity:0.15;}.cls-2{fill:#6b99d1;}.cls-3{fill:#ffa8a7;}.cls-4{fill:#e4f2f2;}.cls-5{fill:#1c2146;}.cls-6{fill:#29316f;}.cls-7{fill:#21285e;}.cls-8{fill:#f28f8f;}.cls-9{fill:#f5fbfb;}.cls-10{fill:#c8dbda;}.cls-11{fill:#3a2c6d;}.cls-12{fill:#c8e2ff;}.cls-13{fill:#a5cbfa;}.cls-14{fill:#031f60;}.cls-15{fill:#1e3779;}.cls-16{fill:#344593;}.cls-17{fill:#2b3d89;}.cls-18{fill:#dceeff;}.cls-19,.cls-20{opacity:0.4;}.cls-20{fill:#fafdff;isolation:isolate;}.cls-21{fill:#7aa3e5;}.cls-22{fill:#57f7e0;}.cls-23{fill:#6cffe6;}.cls-24{fill:#abffef;}.cls-25{fill:#fff;}</style></defs><g class="cls-1"><path class="cls-2" d="M727.19,581.66l14.21-8.19c9.64-5.56,22.94-7,29.75-3s4.48,11.6-5.16,17.17l-14.25,8.19c-9.64,5.56-22.94,6.91-29.75,3S717.54,587.23,727.19,581.66Z" transform="translate(-714.98 -396.73)"/></g><path class="cls-3" d="M783.75,477.84a33.43,33.43,0,0,0-4.71-1.48,16.54,16.54,0,0,1-4.62-1.23c-1.59-.72-5-5.55-7.71-9.91a40.85,40.85,0,0,1-5.48-15.47c-.37-5.7-.11-17.13-.4-21.09s-1.91-5.25-4-6.16c-2.49-1.15-4.46-.64-4.73,5.08s-.37,16.73,1.28,24.34a53.51,53.51,0,0,0,6.6,16.16,62.24,62.24,0,0,0,9.54,11.57c1,1.05,1.54,2.1,3.25,4.34a17.5,17.5,0,0,0,6.42,5.25c2.21.89,3.14.85,3.51.5s.22-1-.74-1.55a14.56,14.56,0,0,1-4.22-2.94s2,1.26,3.31,1.89a14.14,14.14,0,0,0,3.59,1.24c1.22.23,2.5-1.07,1.56-1.61s-1.75-.74-3.71-1.75a13.56,13.56,0,0,1-2.79-1.89,27.06,27.06,0,0,0,4,1.42,6,6,0,0,0,3.36.1c.58-.17,1.09-1.14-.17-1.75a21.46,21.46,0,0,1-4.81-1.75c-1.49-.89-2.4-1.75-2.07-1.75a14.85,14.85,0,0,0,2.66.6c1.51.1,2.92-.65,2.91-1.47S785.26,478.18,783.75,477.84Z" transform="translate(-714.98 -396.73)"/><path class="cls-4" d="M753.41,422.1c-2.35,1.75-3.28,4.87-2.59,14.44a79.58,79.58,0,0,0,4.32,23,49.17,49.17,0,0,0,12.62,18.69,10.05,10.05,0,0,1,4.76-5.25s-6.67-9.15-8.89-15-2.35-15.16-2.37-20.43.58-10.11-1.54-13.09S754.28,421.45,753.41,422.1Z" transform="translate(-714.98 -396.73)"/><path class="cls-5" d="M750,564a21.87,21.87,0,0,1-.39,2.78,11.47,11.47,0,0,0-.19,4.33c.28,1,2.71,2.32,4.32,2.44a10,10,0,0,1,5.11,2.82,9.13,9.13,0,0,0,7.11,2.28c2.2-.37,4.69-1,5.25-2s-.3-1.89-5.13-5-8.05-5-9.68-8Z" transform="translate(-714.98 -396.73)"/><path class="cls-5" d="M730,571.34a8.2,8.2,0,0,0-1.15,5.25,29.51,29.51,0,0,1-.35,7.33,13.39,13.39,0,0,0,2.34,8.14,3.57,3.57,0,0,0,1.47,1,3.51,3.51,0,0,0,3.43-.57,3.46,3.46,0,0,0,1-1.45,13.76,13.76,0,0,0,.6-8.75c-.79-3.1.26-5.45-.26-7.53a17.38,17.38,0,0,0-1.25-3.5Z" transform="translate(-714.98 -396.73)"/><path class="cls-6" d="M730,486.05c.12,3.5,1.2,18.52,1.75,26.5s.59,17.73.59,17.73-1.38,5.81-2.27,12.63,0,28.36,0,28.36a5.46,5.46,0,0,0,5.88,0s3.65-17.24,5.37-25,2-12.25,2.87-17.06c1.07-5.83,3.36-33,3.36-33h.93l2.45,30.66a34.38,34.38,0,0,0-1.56,7c-.67,5,.72,30.14.72,30.14a6,6,0,0,0,3.2.76,6,6,0,0,0,3.13-1s6.15-33.25,6.15-38.37c0-3.34-.58-47.53-.58-47.53Z" transform="translate(-714.98 -396.73)"/><path class="cls-7" d="M747.49,496.22a43.35,43.35,0,0,0,8-4.25,35,35,0,0,1-4.19,3.78c-1.38.87-1,24.85-1,24.85l-1.85-24.33Z" transform="translate(-714.98 -396.73)"/><path class="cls-3" d="M738.32,419.07s.4,7.56.23,8.23-3.5,2.89-4.43,3.67,5.25,6.9,8.22,8.28,12.55-2.25,12.71-7-1.63-8.61-3.08-8.75S738.32,419.07,738.32,419.07Z" transform="translate(-714.98 -396.73)"/><path class="cls-8" d="M750.75,427.7c1-.89-.16-2.87-.84-4.25-3.15-.88-11.59-4.38-11.59-4.38s.09,1.75.14,3a5,5,0,0,0,2,3.73,13.62,13.62,0,0,0,3.36,2C745.09,428.19,748.51,429.77,750.75,427.7Z" transform="translate(-714.98 -396.73)"/><path class="cls-9" d="M737.48,428.59s5.48,8.18,13.14,9c2.4-2.38,2.63-10.85-.71-13.55,0,0,3.08-2.48,5.25-2a10.81,10.81,0,0,1,4.72,6,49.79,49.79,0,0,1,2.7,17.5c-.14,8,0,32.52,0,32.52s-1.07,5.25-8,9-12.06,4.23-16.75,3.13c-3.87-.89-7-2.26-8.42-5.08.35-5.61,2.87-20.28,1.93-27.35s-2.44-12.25-2.82-18.06.75-5.6,3.62-7.63A45.76,45.76,0,0,1,737.48,428.59Z" transform="translate(-714.98 -396.73)"/><path class="cls-3" d="M733.61,496.66a39.75,39.75,0,0,0-3.69-3.29,11.11,11.11,0,0,1-3.64-3c-1-1.58-1.66-6.85-2.21-11.94a50.67,50.67,0,0,1,1.75-16.89c2.07-6.53,6.44-15.35,7.86-19s.51-5.5-1-7.3c-1.75-2.1-4.79-2-7.47,3.08a105.21,105.21,0,0,0-8.23,22,52.83,52.83,0,0,0-1,17.37,61.94,61.94,0,0,0,3.62,14.57c.47,1.4.47,2.55,1.07,5.25a17.47,17.47,0,0,0,3.5,7.57c1.59,1.75,2.45,2.12,2.94,2s.65-.84,0-1.75a14.54,14.54,0,0,1-2.55-4.48s1.29,2,2.18,3.14a14.28,14.28,0,0,0,2.72,2.66c1,.71,2.71.12,2.1-.79s-1.35-1.44-2.63-3.13a13.75,13.75,0,0,1-1.75-2.89,25.75,25.75,0,0,0,3,3,5.94,5.94,0,0,0,3,1.54c.58,0,1.46-.56.55-1.59a21.57,21.57,0,0,1-3.5-3.71c-.95-1.45-1.4-2.61-1.07-2.56s.84.95,2.15,1.75,2.91.67,3.26,0S734.78,497.59,733.61,496.66Z" transform="translate(-714.98 -396.73)"/><path class="cls-4" d="M730.51,433.07c-2.83.49-5.63,3.59-9.2,12.5a79.51,79.51,0,0,0-6.16,22.53,48.23,48.23,0,0,0,3.6,22.73,9.93,9.93,0,0,1,6.79-3.27,108.62,108.62,0,0,1-1-17.38,62.13,62.13,0,0,1,5.9-18.85c2.29-4.76,4.74-8.58,4.18-12.71S731.58,433,730.51,433.07Z" transform="translate(-714.98 -396.73)"/><path class="cls-4" d="M750.63,437.54a43.83,43.83,0,0,0,.64-5.6,18,18,0,0,0-2.11-6v-2.12a5.13,5.13,0,0,1,2.8,1.75,11.85,11.85,0,0,1,2.76,8.33A9.76,9.76,0,0,1,750.63,437.54Z" transform="translate(-714.98 -396.73)"/><path class="cls-9" d="M750.62,437.54c.55-1.09,1.61-4.73,2.14-5.25,1-.34,2,1.75,2,1.75a5.2,5.2,0,0,1-1.3,3.31,2.43,2.43,0,0,1-2.8.19Z" transform="translate(-714.98 -396.73)"/><path class="cls-10" d="M752.76,432.27c-.53.54-1.59,4.18-2.14,5.25a15.6,15.6,0,0,1,1.16-1.75c.58-.74,1.26-2.14,2.94-1.86C754.72,433.93,753.76,431.94,752.76,432.27Z" transform="translate(-714.98 -396.73)"/><path class="cls-4" d="M738.6,426c.14,1.16,6.29,5.74,7.76,6.34s4.27,5.25,4.27,5.25a6.1,6.1,0,0,0-5.6,2.17s-8.76-3.68-10.16-9.56c0,0,1.63-3.15,1.88-3.94s.89-1.75,1.75-1.75Z" transform="translate(-714.98 -396.73)"/><path class="cls-9" d="M745,439.71s.65-4.5,1.6-4.92,4,2.75,4,2.75A8.51,8.51,0,0,1,745,439.71Z" transform="translate(-714.98 -396.73)"/><path class="cls-10" d="M746.61,434.83c-.94.42-1.59,4.91-1.59,4.91a18.8,18.8,0,0,1,3.22-2.46,5.81,5.81,0,0,1,2.38.29S747.54,434.39,746.61,434.83Z" transform="translate(-714.98 -396.73)"/><path class="cls-3" d="M755.5,407.78c-.91-5.86-5.12-10.3-11.18-10a11.63,11.63,0,0,0-10.41,15.62,11.6,11.6,0,0,0,4.41,5.64,11.9,11.9,0,0,0,.94,2.58c2.14,2.5,8.61,4,10.5,3.78a5.55,5.55,0,0,0,4.82-4C756.55,416.85,755.92,410.69,755.5,407.78Z" transform="translate(-714.98 -396.73)"/><path class="cls-11" d="M754.54,403.06a11.57,11.57,0,0,0-19.41,0c-2.32.89-2.25,4.29-2.2,5.34a13.14,13.14,0,0,0,5.39,10.67c-.12-.4-3.17-4.95,0-6a3.82,3.82,0,0,1,.66,2.39s1.54-.15,1.19-2c-.08-.51-.17-1-.26-1.4a5.55,5.55,0,0,1,0-2.11,5.63,5.63,0,0,1,.85-1.94,4.57,4.57,0,0,0,.83-1.82,4.77,4.77,0,0,0,0-2,15.55,15.55,0,0,0,8.85.7A8.1,8.1,0,0,0,754.54,403.06Z" transform="translate(-714.98 -396.73)"/><path class="cls-11" d="M735.13,403.09s-.71-2.31,2.25-4.56c3.5-2.68,8.52-2.09,13.75,0,3.36,1.33,8.54-.3,7.54,3.5-1.47,5.63-12.35,6.1-17.08,2.18A12.28,12.28,0,0,0,735.13,403.09Z" transform="translate(-714.98 -396.73)"/><path class="cls-3" d="M738.32,419.07s-.26.62-1.4.67c-2.12.1-4.6-3.83-2.91-6.51a2.87,2.87,0,0,1,.94-.76,2.57,2.57,0,0,1,1.18-.29,2.66,2.66,0,0,1,1.18.24,2.57,2.57,0,0,1,1,.72Z" transform="translate(-714.98 -396.73)"/><g class="cls-1"><path class="cls-2" d="M1051.28,570.78,937.28,505a9.73,9.73,0,0,0-8.91,0L751.85,607c-2.45,1.42-2.45,3.73,0,5.15l114,65.82a9.93,9.93,0,0,0,8.93,0l176.5-102C1053.78,574.5,1053.78,572.19,1051.28,570.78Z" transform="translate(-714.98 -396.73)"/></g><path class="cls-12" d="M1053.17,558.09V548l-4.39-3.29-108.11-50.3c-9.41-5.42-13.4-5.42-15.85-4L776.14,576.32,750,584.24v10.08a3.11,3.11,0,0,0,1.84,2.55l114,65.81a9.85,9.85,0,0,0,8.93,0l176.5-102a3,3,0,0,0,1.31-1A3,3,0,0,0,1053.17,558.09Z" transform="translate(-714.98 -396.73)"/><path class="cls-13" d="M750,584.24v10.08a3.11,3.11,0,0,0,1.84,2.55l114,65.81a9,9,0,0,0,4.47,1.06l-.13-61.92-64.05-42.89-30,17.38Z" transform="translate(-714.98 -396.73)"/><path class="cls-14" d="M1042.23,548.27l-43.75-25.13a6.59,6.59,0,0,0-6,0l-1,.59a6.46,6.46,0,0,1-3,.71,6.53,6.53,0,0,1-3-.71l-21.79-12.67a1.72,1.72,0,0,1-1.23-.51,1.75,1.75,0,0,1-.52-1.24,1.76,1.76,0,0,1,1.75-1.75l1-.59a1.74,1.74,0,0,0,1.23-.52,1.73,1.73,0,0,0,.52-1.23,1.76,1.76,0,0,0-1.75-1.75l-32.54-18.68a6.55,6.55,0,0,0-5.93,0L760.76,580.47a1.75,1.75,0,0,0-1.24.52,1.73,1.73,0,0,0-.52,1.23,1.76,1.76,0,0,0,1.76,1.75l110,63.48a6.57,6.57,0,0,0,5.94,0l165.52-95.68a1.75,1.75,0,1,0,0-3.5Z" transform="translate(-714.98 -396.73)"/><path class="cls-15" d="M995.59,521.4l49.69,28.53-3.35,6.2-46.34-26.67Z" transform="translate(-714.98 -396.73)"/><path class="cls-15" d="M929.28,491.11v-8.05l38.43,22.26-7,4Z" transform="translate(-714.98 -396.73)"/><path class="cls-16" d="M876.7,647.38l164.94-95.29-43.07-24.8a6.6,6.6,0,0,0-3-.71,6.53,6.53,0,0,0-3,.71l-1,.59a6.55,6.55,0,0,1-5.93,0l-21.88-12.69a1.72,1.72,0,0,1-1.23-.51,1.75,1.75,0,0,1-.52-1.24,1.76,1.76,0,0,1,1.75-1.75l.6-.35-.6-.35a1.72,1.72,0,0,1-1.23-.51,1.75,1.75,0,0,1-.52-1.24,1.76,1.76,0,0,1,1.75-1.75l.42-.24L932.27,488.9a6.63,6.63,0,0,0-5.93,0l-165,95.35,109.4,63.13a6.5,6.5,0,0,0,5.91,0Z" transform="translate(-714.98 -396.73)"/><path class="cls-17" d="M998.57,527.25a6.59,6.59,0,0,0-6,0l-1,.6a6.65,6.65,0,0,1-5.94,0l-21.88-12.66a1.74,1.74,0,0,1-1.74-1.75,1.76,1.76,0,0,1,.51-1.24,1.78,1.78,0,0,1,1.23-.51l.6-.35-.6-.35a1.74,1.74,0,0,1-1.74-1.75,1.76,1.76,0,0,1,.51-1.24,1.78,1.78,0,0,1,1.23-.51l.43-.24L932.27,488.9a6.13,6.13,0,0,0-3-.7s20.32,23.26,17.5,63.92c-1.75,25.38-48.29,82.15-66.51,93.2l161.35-93.24Z" transform="translate(-714.98 -396.73)"/><path class="cls-15" d="M962.5,509.35v4.13a2.1,2.1,0,0,0,1.22,1.75l21.93,12.65a6,6,0,0,0,3.13.72v-5.25Z" transform="translate(-714.98 -396.73)"/><path class="cls-18" d="M1051.28,545.47l-114-65.81a9.81,9.81,0,0,0-8.91,0l-176.52,102c-2.45,1.42-2.45,3.73,0,5.15l114,65.82a9.93,9.93,0,0,0,8.93,0l176.5-102C1053.78,549.2,1053.78,546.83,1051.28,545.47Zm-9.08,6.23L876.67,647.38a6.57,6.57,0,0,1-5.94,0l-110-63.48a1.75,1.75,0,0,1-1.24-3,1.78,1.78,0,0,1,1.24-.51l165.56-95.61a6.55,6.55,0,0,1,5.93,0l32.5,18.82a1.75,1.75,0,0,1,0,3.5l-1,.59a1.74,1.74,0,0,0-1.75,1.75,1.78,1.78,0,0,0,.51,1.24,1.76,1.76,0,0,0,1.24.51l21.93,12.67a6.55,6.55,0,0,0,5.93,0l1-.59a6.53,6.53,0,0,1,3-.71,6.6,6.6,0,0,1,3,.71l43.75,25.13a1.72,1.72,0,0,1,.82.66,1.76,1.76,0,0,1,.29,1,1.74,1.74,0,0,1-1.2,1.61Z" transform="translate(-714.98 -396.73)"/><g class="cls-19"><path class="cls-20" d="M816.73,548.13l13.59-7.86h-6.84l-13.6,7.86Z" transform="translate(-714.98 -396.73)"/><path class="cls-20" d="M867.87,518.55l27.19-15.71h-6.79l-27.21,15.71Z" transform="translate(-714.98 -396.73)"/><path class="cls-20" d="M777.26,570.93l27.2-15.71h-6.85l-27.2,15.71Z" transform="translate(-714.98 -396.73)"/><path class="cls-20" d="M938.78,488.57l9.61,5.57h14l-9.64-5.57Z" transform="translate(-714.98 -396.73)"/><path class="cls-20" d="M977.48,502.85h-14l1.33.76a1.72,1.72,0,0,1,1.23.51,1.75,1.75,0,0,1,.52,1.24,1.78,1.78,0,0,1-1.75,1.75l-1,.59a1.75,1.75,0,0,0-1.23,3,1.72,1.72,0,0,0,1.23.51l13,7.51h28Z" transform="translate(-714.98 -396.73)"/><path class="cls-20" d="M794.78,603.52l-13.62-7.86h-14l13.61,7.86Z" transform="translate(-714.98 -396.73)"/><path class="cls-20" d="M910.13,494.14l9.65-5.57H913l-9.65,5.57Z" transform="translate(-714.98 -396.73)"/><path class="cls-20" d="M1036.14,555.22,1009,570.93h7.21l27.19-15.71Z" transform="translate(-714.98 -396.73)"/><path class="cls-20" d="M1051.28,545.47l-9-5.25h-14l13.65,7.86h11.15a3,3,0,0,0-1.8-2.61Z" transform="translate(-714.98 -396.73)"/><path class="cls-20" d="M966.17,595.66l-13.6,7.86h7.2l13.59-7.86Z" transform="translate(-714.98 -396.73)"/><path class="cls-20" d="M940.3,610.61l-27.18,15.72h7.16l27.22-15.72Z" transform="translate(-714.98 -396.73)"/><path class="cls-20" d="M834.3,626.33l-27.23-15.72h-14l27.23,15.72Z" transform="translate(-714.98 -396.73)"/><path class="cls-20" d="M866.55,645l-13.28-7.69h-14L852.55,645Z" transform="translate(-714.98 -396.73)"/><path class="cls-20" d="M894.19,637.26,880.91,645h7.15l13.29-7.69Z" transform="translate(-714.98 -396.73)"/></g><path class="cls-14" d="M974.17,509.07l10.6,6.14c.91.52,1.07,1.28.37,1.75a3.17,3.17,0,0,1-1.49.24,3.24,3.24,0,0,1-1.45-.45l-10.64-6.14c-.91-.53-1.09-1.28-.37-1.75a3.41,3.41,0,0,1,1.51-.25A3.33,3.33,0,0,1,974.17,509.07Z" transform="translate(-714.98 -396.73)"/><path class="cls-21" d="M800.4,620.34c0-1.16,2.43-.68,5.41,1s5.4,4.06,5.4,5.25v2.09l-10.81-6.25Z" transform="translate(-714.98 -396.73)"/><path class="cls-21" d="M814.57,630a1.49,1.49,0,0,0,.69,1.19.42.42,0,0,0,.68-.38,1.49,1.49,0,0,0-.2-.68,1.67,1.67,0,0,0-.48-.51C814.87,629.39,814.57,629.58,814.57,630Z" transform="translate(-714.98 -396.73)"/><path class="cls-21" d="M817.93,632a1.64,1.64,0,0,0,.21.68,1.56,1.56,0,0,0,.48.51.44.44,0,0,0,.7-.4,1.64,1.64,0,0,0-.21-.68,1.5,1.5,0,0,0-.49-.51C818.25,631.35,817.93,631.52,817.93,632Z" transform="translate(-714.98 -396.73)"/><path class="cls-21" d="M821.31,633.9a1.62,1.62,0,0,0,.2.68,1.67,1.67,0,0,0,.48.51.42.42,0,0,0,.68-.4,1.33,1.33,0,0,0-.19-.67,1.47,1.47,0,0,0-.49-.5C821.62,633.29,821.31,633.47,821.31,633.9Z" transform="translate(-714.98 -396.73)"/><path class="cls-21" d="M824.69,635.86a1.42,1.42,0,0,0,.2.67,1.56,1.56,0,0,0,.48.51.42.42,0,0,0,.68-.39,1.48,1.48,0,0,0-.19-.68,1.59,1.59,0,0,0-.49-.51C825,635.25,824.69,635.43,824.69,635.86Z" transform="translate(-714.98 -396.73)"/><path class="cls-21" d="M828.07,637.84a1.49,1.49,0,0,0,.2.68,1.38,1.38,0,0,0,.48.51.42.42,0,0,0,.68-.4,1.61,1.61,0,0,0-.19-.68,1.59,1.59,0,0,0-.49-.51C828.37,637.19,828.07,637.37,828.07,637.84Z" transform="translate(-714.98 -396.73)"/><path class="cls-21" d="M814.48,626.48a1.49,1.49,0,0,0,.69,1.19.42.42,0,0,0,.68-.38,1.62,1.62,0,0,0-.2-.68,1.67,1.67,0,0,0-.48-.51C814.78,625.87,814.48,626.05,814.48,626.48Z" transform="translate(-714.98 -396.73)"/><path class="cls-21" d="M817.85,628.44a1.42,1.42,0,0,0,.2.67,1.56,1.56,0,0,0,.48.51.43.43,0,0,0,.7-.39,1.64,1.64,0,0,0-.21-.68,1.59,1.59,0,0,0-.49-.51C818.16,627.83,817.85,628,817.85,628.44Z" transform="translate(-714.98 -396.73)"/><path class="cls-21" d="M821.22,630.39a1.64,1.64,0,0,0,.21.67,1.59,1.59,0,0,0,.48.52c.38.21.68,0,.68-.41a1.49,1.49,0,0,0-.2-.67,1.53,1.53,0,0,0-.48-.5C821.54,629.77,821.22,630,821.22,630.39Z" transform="translate(-714.98 -396.73)"/><path class="cls-21" d="M824.6,632.33a1.69,1.69,0,0,0,.2.67,1.53,1.53,0,0,0,.49.52c.38.23.68,0,.68-.39a1.45,1.45,0,0,0-.2-.67,1.5,1.5,0,0,0-.48-.52C824.92,631.72,824.6,631.89,824.6,632.33Z" transform="translate(-714.98 -396.73)"/><path class="cls-21" d="M828,634.34a1.49,1.49,0,0,0,.2.68,1.56,1.56,0,0,0,.48.51.43.43,0,0,0,.69-.4,1.62,1.62,0,0,0-.2-.68,1.5,1.5,0,0,0-.49-.51C828.28,633.68,828,633.85,828,634.34Z" transform="translate(-714.98 -396.73)"/><path class="cls-21" d="M831.36,636.23a1.49,1.49,0,0,0,.2.68,1.38,1.38,0,0,0,.48.51.42.42,0,0,0,.68-.4,1.45,1.45,0,0,0-.2-.67,1.53,1.53,0,0,0-.48-.5C831.66,635.62,831.36,635.79,831.36,636.23Z" transform="translate(-714.98 -396.73)"/><path class="cls-21" d="M834.74,638.17a1.45,1.45,0,0,0,.19.68,1.41,1.41,0,0,0,.49.51.42.42,0,0,0,.68-.38,1.42,1.42,0,0,0-.2-.67,1.5,1.5,0,0,0-.48-.52A.42.42,0,0,0,834.74,638.17Z" transform="translate(-714.98 -396.73)"/><path class="cls-21" d="M774.86,607.08a1.79,1.79,0,0,0,.2.67,1.62,1.62,0,0,0,.49.52c.38.21.68,0,.68-.41a1.49,1.49,0,0,0-.2-.67,1.53,1.53,0,0,0-.48-.5C775.18,606.46,774.86,606.64,774.86,607.08Z" transform="translate(-714.98 -396.73)"/><path class="cls-21" d="M778.26,609a1.42,1.42,0,0,0,.2.67,1.47,1.47,0,0,0,.48.51c.39.23.68,0,.68-.39a1.56,1.56,0,0,0-.68-1.19C778.56,608.42,778.26,608.6,778.26,609Z" transform="translate(-714.98 -396.73)"/><path class="cls-21" d="M781.62,611a1.56,1.56,0,0,0,.68,1.19c.39.21.68,0,.68-.41a1.57,1.57,0,0,0-.19-.67,1.53,1.53,0,0,0-.49-.52C781.92,610.36,781.62,610.54,781.62,611Z" transform="translate(-714.98 -396.73)"/><path class="cls-21" d="M785,612.92a1.48,1.48,0,0,0,.19.68,1.5,1.5,0,0,0,.49.51.42.42,0,0,0,.68-.4,1.42,1.42,0,0,0-.2-.67,1.44,1.44,0,0,0-.48-.5C785.26,612.31,785,612.48,785,612.92Z" transform="translate(-714.98 -396.73)"/><path class="cls-21" d="M788.37,614.88a1.42,1.42,0,0,0,.2.67,1.38,1.38,0,0,0,.49.5.42.42,0,0,0,.68-.38,1.78,1.78,0,0,0-.2-.68,1.67,1.67,0,0,0-.48-.51A.43.43,0,0,0,788.37,614.88Z" transform="translate(-714.98 -396.73)"/><path class="cls-21" d="M791.75,616.84a1.62,1.62,0,0,0,.2.68,1.5,1.5,0,0,0,.49.51.43.43,0,0,0,.68-.4,1.78,1.78,0,0,0-.2-.68,1.67,1.67,0,0,0-.48-.51C792.05,616.21,791.75,616.39,791.75,616.84Z" transform="translate(-714.98 -396.73)"/><path class="cls-21" d="M795.11,618.77a1.49,1.49,0,0,0,.2.67,1.59,1.59,0,0,0,.48.52c.39.22.68,0,.68-.41a1.49,1.49,0,0,0-.2-.67,1.43,1.43,0,0,0-.48-.5C795.42,618.15,795.11,618.33,795.11,618.77Z" transform="translate(-714.98 -396.73)"/><path class="cls-21" d="M774.76,603.56a1.45,1.45,0,0,0,.2.67,1.59,1.59,0,0,0,.48.52c.39.21.68,0,.68-.41a1.47,1.47,0,0,0-.19-.67,1.56,1.56,0,0,0-.49-.5C775.09,602.94,774.76,603.12,774.76,603.56Z" transform="translate(-714.98 -396.73)"/><path class="cls-21" d="M778.15,605.52a1.55,1.55,0,0,0,.21.66,1.38,1.38,0,0,0,.48.51.42.42,0,0,0,.68-.38,1.46,1.46,0,0,0-.2-.68,1.39,1.39,0,0,0-.48-.51C778.47,604.9,778.15,605.08,778.15,605.52Z" transform="translate(-714.98 -396.73)"/><path class="cls-21" d="M781.53,607.46a1.49,1.49,0,0,0,.2.68,1.59,1.59,0,0,0,.49.51.42.42,0,0,0,.68-.4,1.49,1.49,0,0,0-.2-.68,1.47,1.47,0,0,0-.48-.51C781.76,606.85,781.53,607,781.53,607.46Z" transform="translate(-714.98 -396.73)"/><path class="cls-21" d="M784.91,609.4a1.49,1.49,0,0,0,.2.68,1.47,1.47,0,0,0,.48.51.43.43,0,0,0,.69-.4,1.55,1.55,0,0,0-.21-.67,1.43,1.43,0,0,0-.48-.5C785.26,608.79,784.91,609,784.91,609.4Z" transform="translate(-714.98 -396.73)"/><path class="cls-21" d="M788.29,611.36a1.41,1.41,0,0,0,.19.67,1.38,1.38,0,0,0,.49.5.42.42,0,0,0,.68-.38,1.49,1.49,0,0,0-.2-.68A1.56,1.56,0,0,0,789,611C788.58,610.75,788.29,610.93,788.29,611.36Z" transform="translate(-714.98 -396.73)"/><path class="cls-21" d="M791.66,613.34a1.49,1.49,0,0,0,.2.68,1.59,1.59,0,0,0,.49.51.43.43,0,0,0,.68-.4,1.78,1.78,0,0,0-.2-.68,1.67,1.67,0,0,0-.48-.51C792,612.69,791.66,612.87,791.66,613.34Z" transform="translate(-714.98 -396.73)"/><path class="cls-21" d="M795,615.25a1.55,1.55,0,0,0,.21.67,1.41,1.41,0,0,0,.48.52.42.42,0,0,0,.68-.4,1.42,1.42,0,0,0-.2-.67,1.47,1.47,0,0,0-.48-.51C795.34,614.64,795,614.81,795,615.25Z" transform="translate(-714.98 -396.73)"/><path class="cls-14" d="M986.42,517.57c-.7.41-.7,1,0,1.44a2.74,2.74,0,0,0,1.25.3,2.68,2.68,0,0,0,1.25-.3.72.72,0,0,0,.38-.28.72.72,0,0,0,0-.88.72.72,0,0,0-.38-.28,2.68,2.68,0,0,0-1.25-.3A2.74,2.74,0,0,0,986.42,517.57Z" transform="translate(-714.98 -396.73)"/><path class="cls-22" d="M925.93,545.52l27.87,16.12v-88.5L925.93,457Z" transform="translate(-714.98 -396.73)"/><path class="cls-23" d="M953.8,561.64l20.89-12.08V461.08L953.8,473.14Z" transform="translate(-714.98 -396.73)"/><path class="cls-24" d="M974.69,461.08,946.83,445,925.93,457l27.87,16.11Z" transform="translate(-714.98 -396.73)"/><path class="cls-25" d="M953.8,561.64a2.64,2.64,0,0,1-.51-1,9.73,9.73,0,0,1-.14-2.8v-10c0-8.29,0-19.35.12-30.41s.16-22.13.3-30.42.21-13.83.21-13.83.09,5.53.21,13.83.21,19.36.3,30.42,0,22.12.12,30.41v10a10.94,10.94,0,0,1-.16,2.8A2.66,2.66,0,0,1,953.8,561.64Z" transform="translate(-714.98 -396.73)"/><path class="cls-25" d="M974.69,461.08a1.75,1.75,0,0,1,0,.56c0,.29-.31.35-.59.52l-2.37,1.37c-2,1.12-4.6,2.59-7.24,4s-5.25,2.89-7.33,3.91-3.38,1.75-3.38,1.75,1.26-.86,3.17-2.09,4.46-2.8,7-4.39,5.25-3.13,7.12-4.27l2.36-1.37c.3-.15.47-.36.76-.24A1.52,1.52,0,0,1,974.69,461.08Z" transform="translate(-714.98 -396.73)"/><path class="cls-22" d="M891.09,565.56,919,581.73l0-76.51-27.88-16.16Z" transform="translate(-714.98 -396.73)"/><path class="cls-23" d="M919,581.73l20.92-12.07,0-76.5L919,505.22Z" transform="translate(-714.98 -396.73)"/><path class="cls-24" d="M939.85,493.16,912,477l-20.89,12.06L919,505.22Z" transform="translate(-714.98 -396.73)"/><path class="cls-25" d="M919,581.73a2.38,2.38,0,0,1-.49-.86,7.91,7.91,0,0,1-.15-2.43v-8.66c0-7.18,0-16.73.1-26.25s.16-19.12.32-26.26.21-11.95.21-11.95,0,4.78.19,11.95.21,16.74.31,26.26,0,19.12.11,26.25v8.66a8.23,8.23,0,0,1-.16,2.43A2.13,2.13,0,0,1,919,581.73Z" transform="translate(-714.98 -396.73)"/><path class="cls-25" d="M939.87,493.16v.56c0,.22-.3.35-.58.52l-2.38,1.37c-2,1.12-4.59,2.59-7.25,4s-5.25,2.89-7.33,3.91-3.36,1.75-3.36,1.75,1.24-.86,3.15-2.09,4.48-2.8,7-4.39,5.16-3.13,7.12-4.27l2.37-1.37c.28-.15.45-.36.73-.24A1.78,1.78,0,0,1,939.87,493.16Z" transform="translate(-714.98 -396.73)"/><path class="cls-22" d="M856.26,585.74l27.86,16.1V545.52l-27.86-16.08Z" transform="translate(-714.98 -396.73)"/><path class="cls-23" d="M884.12,601.84,905,589.77l0-56.31-20.9,12.06Z" transform="translate(-714.98 -396.73)"/><path class="cls-24" d="M905,533.46l-27.86-16.1-20.9,12.08,27.86,16.08Z" transform="translate(-714.98 -396.73)"/><path class="cls-25" d="M884.12,601.84a1.79,1.79,0,0,1-.49-.63,4.13,4.13,0,0,1-.15-1.75v-6.39c0-5.25,0-12.25.12-19.35s.16-14,.3-19.36.21-8.75.21-8.75,0,3.5.22,8.75.2,12.25.3,19.36,0,14,.11,19.35v6.39a4.14,4.14,0,0,1-.16,1.75A1.68,1.68,0,0,1,884.12,601.84Z" transform="translate(-714.98 -396.73)"/><path class="cls-25" d="M905,533.46a1.32,1.32,0,0,1,0,.56c0,.3-.31.35-.58.53l-2.38,1.35c-2,1.13-4.6,2.6-7.24,4s-5.25,2.89-7.33,3.88-3.38,1.76-3.38,1.76,1.26-.85,3.16-2.07,4.47-2.82,7-4.41,5.16-3.12,7.1-4.25l2.36-1.39c.3-.14.48-.36.76-.22A1.7,1.7,0,0,1,905,533.46Z" transform="translate(-714.98 -396.73)"/><path class="cls-22" d="M821.43,605.85,849.35,622V581.73l-27.92-16.1Z" transform="translate(-714.98 -396.73)"/><path class="cls-23" d="M849.35,622l20.89-12.07V569.66l-20.89,12.07Z" transform="translate(-714.98 -396.73)"/><path class="cls-24" d="M870.24,569.66l-27.93-16.09-20.88,12.06,27.92,16.1Z" transform="translate(-714.98 -396.73)"/><path class="cls-25" d="M849.35,622a1.39,1.39,0,0,1-.51-.45c-.23-.28-.14-.72-.16-1.26v-4.57c0-3.76,0-8.75.12-13.83s.16-10.06.3-13.82.21-6.29.21-6.29,0,2.52.21,6.29.19,8.75.3,13.82,0,10.07.1,13.83v4.57a3,3,0,0,1-.15,1.26A1.51,1.51,0,0,1,849.35,622Z" transform="translate(-714.98 -396.73)"/><path class="cls-25" d="M870.24,569.59a1.75,1.75,0,0,1,0,.56c0,.31-.29.35-.57.52L867.3,572c-2,1.12-4.6,2.59-7.24,4s-5.25,2.89-7.33,3.9-3.38,1.76-3.38,1.76,1.24-.86,3.15-2.07l7-4.41c2.52-1.59,5.16-3.13,7.12-4.27L869,569.6c.3-.15.48-.36.76-.24S870.26,569.71,870.24,569.59Z" transform="translate(-714.98 -396.73)"/></svg>