<svg id="Layer_1" data-name="Layer 1" xmlns="http://www.w3.org/2000/svg" xmlns:xlink="http://www.w3.org/1999/xlink" viewBox="0 0 987.5 515.19"><defs><style>.cls-1{fill:#000040;}.cls-2,.cls-3{fill:none;}.cls-2{stroke-width:41px;stroke:url(#linear-gradient);}.cls-3{stroke-width:40.77px;stroke:url(#linear-gradient-2);}</style><linearGradient id="linear-gradient" x1="903.58" y1="466.83" x2="221.48" y2="726.01" gradientTransform="matrix(1, 0, 0, -1, 244, 1232)" gradientUnits="userSpaceOnUse"><stop offset="0" stop-color="#0f0f4a"/><stop offset="1" stop-color="#000040" stop-opacity="0"/></linearGradient><linearGradient id="linear-gradient-2" x1="828.13" y1="522.47" x2="431.96" y2="631.37" gradientTransform="matrix(1, 0, 0, -1, 244, 1232)" gradientUnits="userSpaceOnUse"><stop offset="0" stop-color="#121247"/><stop offset="0.62" stop-color="#131359"/><stop offset="1" stop-color="#000040" stop-opacity="0"/></linearGradient></defs><rect class="cls-1" y="75.19" width="960" height="440"/><path class="cls-2" d="M1154.38,797.88c-44.63-37.18-77-74.5-284.5-79.5s-198.81-213.6-300-247" transform="translate(-180 -379.81)"/><path class="cls-3" d="M1150.71,865.49c-45.87-35.8-51.17-90.13-300.2-95-100.9-1.95-185-59.29-249-128.17-37.82-40.74-69.67-85.9-99.89-131.76q-4-6-7.91-12.11t-7.84-12.14l-7.83-12.15c0-.16-.33-.52-.43-.67l-.51-.79c-.33-.51-.66-1-1-1.53l-1.89-2.92c-1.31-2-2.61-4-3.93-6.06q-3.93-6.06-7.9-12.1-2.25-3.42-4.51-6.82C447.14,427.13,436,408.26,420,396" transform="translate(-180 -379.81)"/></svg>