<svg id="Layer_1" data-name="Layer 1" xmlns="http://www.w3.org/2000/svg" viewBox="0 0 94.32 93.42"><defs><style>.cls-1{fill:#04043d;}</style></defs><path class="cls-1" d="M736,434.1c0-6.64,4.49-10.92,11.44-10.92s11.43,4.28,11.43,10.92c0,7.15-5,15.47-11.43,15.47S736,441.25,736,434.1Z" transform="translate(-724.68 -423.18)"/><path class="cls-1" d="M770.2,468.34a1.89,1.89,0,0,1-1.89,1.89H726.56a1.88,1.88,0,0,1-1.88-1.89c0-8.77,10.2-15.92,22.75-15.92S770.2,459.57,770.2,468.34Z" transform="translate(-724.68 -423.18)"/><path class="cls-1" d="M784.8,480.47c0-6.64,4.49-10.92,11.43-10.92s11.43,4.28,11.43,10.92c0,7.15-5,15.47-11.43,15.47S784.8,487.62,784.8,480.47Z" transform="translate(-724.68 -423.18)"/><path class="cls-1" d="M819,514.71a1.89,1.89,0,0,1-1.89,1.89H775.37a1.88,1.88,0,0,1-1.89-1.89c0-8.77,10.2-15.92,22.75-15.92S819,505.94,819,514.71Z" transform="translate(-724.68 -423.18)"/><path class="cls-1" d="M775.61,443.93h18.45V455l-1.36-1.36a1.88,1.88,0,0,0-2.66,2.66l4.59,4.58a1.82,1.82,0,0,0,1.32.57,2.12,2.12,0,0,0,.73-.15,1.71,1.71,0,0,0,.61-.42l4.58-4.58a1.88,1.88,0,0,0-2.66-2.66L797.85,455V442.05a1.89,1.89,0,0,0-1.88-1.89H775.61a1.89,1.89,0,1,0,0,3.77Z" transform="translate(-724.68 -423.18)"/><path class="cls-1" d="M767.76,495.7H749.31V484.64l1.36,1.36a1.85,1.85,0,0,0,1.34.55,1.94,1.94,0,0,0,1.34-.55,1.87,1.87,0,0,0,0-2.66l-4.58-4.58a1.91,1.91,0,0,0-2.68,0l-4.59,4.58a1.88,1.88,0,1,0,2.66,2.66l1.36-1.36v12.94a1.89,1.89,0,0,0,1.89,1.89h20.33a1.89,1.89,0,0,0,1.89-1.89A1.86,1.86,0,0,0,767.76,495.7Z" transform="translate(-724.68 -423.18)"/></svg>