<svg id="Layer_1" data-name="Layer 1" xmlns="http://www.w3.org/2000/svg" viewBox="0 0 137.87 157.56"><defs><style>.cls-1{fill:#0071ff;}</style></defs><path class="cls-1" d="M875.26,477.38a8,8,0,0,0-5.36,2.08l-24.51-14.23a34.4,34.4,0,0,0,0-30L869.9,421a8,8,0,0,0,5.36,2.08,8.16,8.16,0,1,0-8.1-8.15,8.24,8.24,0,0,0,.16,1.65l-24.45,14.19a34.34,34.34,0,0,0-25.88-15V387.3a8.11,8.11,0,1,0-5.1,0v28.45a34.34,34.34,0,0,0-25.89,15l-24.45-14.19a8.25,8.25,0,0,0,.17-1.65,8.11,8.11,0,1,0-8.11,8.15A8,8,0,0,0,759,421l24.5,14.22a34.4,34.4,0,0,0,0,30L759,479.46a8,8,0,0,0-5.37-2.08,8.16,8.16,0,1,0,7.94,6.5L786,469.69a34.34,34.34,0,0,0,25.89,15v28.46a8.11,8.11,0,1,0,5.09,0V484.69a34.34,34.34,0,0,0,25.89-15l24.45,14.19a8.25,8.25,0,0,0-.17,1.65,8.11,8.11,0,1,0,8.11-8.15Zm-1.18-64.53a2.35,2.35,0,0,1,3.23.87,2.37,2.37,0,1,1-3.23-.87ZM754.8,417a2.38,2.38,0,0,1-2.37-4.12,2.35,2.35,0,0,1,3.23.87A2.39,2.39,0,0,1,754.8,417Zm0,70.62a2.36,2.36,0,0,1-3.24-.87,2.39,2.39,0,0,1,.87-3.25,2.38,2.38,0,0,1,2.37,4.12Zm58.45-110.06a2.38,2.38,0,1,1-.86,3.25A2.37,2.37,0,0,1,813.25,377.53Zm-11,81.62a8.93,8.93,0,0,1,0-17.86h12.13a8.85,8.85,0,0,1,7.76,5.06,8.74,8.74,0,0,1,.9,3.87,8.27,8.27,0,0,1-.46,2.78h-5.79a3.75,3.75,0,0,0,1.22-2.78,3.84,3.84,0,0,0-3.63-3.85.86.86,0,0,0-.22,0h-11.9a3.87,3.87,0,0,0,0,7.74h3.17a3,3,0,0,0,.22.48,9.85,9.85,0,0,0,4.42,4.57H802.3Zm13.32,63.76a2.38,2.38,0,1,1,.87-3.25A2.39,2.39,0,0,1,815.62,522.91Zm11-63.76H814.45a9,9,0,0,1-8.66-8.93,8.53,8.53,0,0,1,.45-2.78H812a3.75,3.75,0,0,0-1.22,2.78,3.84,3.84,0,0,0,3.64,3.85.75.75,0,0,0,.21,0h11.91a3.87,3.87,0,0,0,0-7.74h-3.18a2.34,2.34,0,0,0-.22-.48,9.82,9.82,0,0,0-4.42-4.58h7.82a8.93,8.93,0,0,1,0,17.86Zm49.87,28.44a2.35,2.35,0,0,1-3.23-.87,2.39,2.39,0,0,1,.87-3.25,2.37,2.37,0,0,1,2.36,4.12ZM753.61,432.91a2.38,2.38,0,1,0-2.37-2.38A2.38,2.38,0,0,0,753.61,432.91Zm0,9.84a2.38,2.38,0,1,0-2.37-2.38A2.37,2.37,0,0,0,753.61,442.75Zm0,9.85a2.38,2.38,0,1,0-2.37-2.38A2.38,2.38,0,0,0,753.61,452.6Zm0,9.85a2.38,2.38,0,1,0-2.37-2.38A2.38,2.38,0,0,0,753.61,462.45Zm0,9.84a2.38,2.38,0,1,0-2.37-2.38A2.37,2.37,0,0,0,753.61,472.29Zm121.65-44.14a2.38,2.38,0,1,0,2.37,2.38A2.37,2.37,0,0,0,875.26,428.15Zm0,9.84a2.38,2.38,0,1,0,2.37,2.38A2.38,2.38,0,0,0,875.26,438Zm0,9.85a2.38,2.38,0,1,0,2.37,2.38A2.38,2.38,0,0,0,875.26,447.84Zm0,9.85a2.38,2.38,0,1,0,2.37,2.38A2.37,2.37,0,0,0,875.26,457.69Zm0,9.85a2.38,2.38,0,1,0,2.37,2.37A2.37,2.37,0,0,0,875.26,467.54Zm-107,23.74a2.38,2.38,0,1,0,.87,3.25A2.39,2.39,0,0,0,768.25,491.28Zm8.48,4.93a2.35,2.35,0,0,0-3.23.87,2.37,2.37,0,1,0,3.23-.87Zm8.48,4.92A2.35,2.35,0,0,0,782,502a2.38,2.38,0,0,0,.86,3.25,2.35,2.35,0,0,0,3.23-.87A2.38,2.38,0,0,0,785.21,501.13Zm8.48,4.92a2.38,2.38,0,1,0,.87,3.25A2.39,2.39,0,0,0,793.69,506.05Zm8.48,4.93a2.35,2.35,0,0,0-3.23.87,2.37,2.37,0,1,0,3.23-.87ZM826.7,389.46a2.36,2.36,0,0,0,3.24-.87,2.39,2.39,0,0,0-.87-3.25,2.36,2.36,0,0,0-3.23.87A2.39,2.39,0,0,0,826.7,389.46Zm8.49,4.93a2.36,2.36,0,0,0,3.23-.87,2.39,2.39,0,0,0-.87-3.25,2.35,2.35,0,0,0-3.23.87A2.39,2.39,0,0,0,835.19,394.39Zm8.48,4.92a2.35,2.35,0,0,0,3.23-.87,2.39,2.39,0,0,0-.87-3.25,2.35,2.35,0,0,0-3.23.87A2.39,2.39,0,0,0,843.67,399.31Zm8.48,4.92a2.35,2.35,0,0,0,3.23-.87,2.39,2.39,0,0,0-.87-3.25,2.35,2.35,0,0,0-3.23.87A2.39,2.39,0,0,0,852.15,404.23Zm8.48,4.93a2.37,2.37,0,1,0-.87-3.25A2.37,2.37,0,0,0,860.63,409.16ZM826.7,511a2.38,2.38,0,1,0,3.24.87A2.36,2.36,0,0,0,826.7,511Zm8.49-4.93a2.39,2.39,0,0,0-.87,3.25,2.36,2.36,0,0,0,3.23.88,2.39,2.39,0,0,0,.87-3.25A2.37,2.37,0,0,0,835.19,506.05Zm8.48-4.92a2.39,2.39,0,0,0-.87,3.25,2.35,2.35,0,0,0,3.23.87,2.39,2.39,0,0,0,.87-3.25A2.35,2.35,0,0,0,843.67,501.13Zm8.48-4.92a2.39,2.39,0,0,0-.87,3.25,2.36,2.36,0,0,0,3.23.87,2.39,2.39,0,0,0,.87-3.25A2.35,2.35,0,0,0,852.15,496.21Zm8.48-4.93a2.39,2.39,0,0,0-.87,3.25,2.35,2.35,0,0,0,3.23.87,2.37,2.37,0,0,0-2.36-4.12Zm-92.38-82.12a2.39,2.39,0,0,0,.87-3.25,2.37,2.37,0,1,0-.87,3.25Zm8.48-4.93a2.38,2.38,0,0,0,.86-3.25,2.35,2.35,0,0,0-3.23-.87,2.38,2.38,0,0,0-.86,3.25A2.35,2.35,0,0,0,776.73,404.23Zm8.48-4.92a2.38,2.38,0,0,0,.86-3.25,2.35,2.35,0,0,0-3.23-.87,2.38,2.38,0,0,0-.86,3.25A2.35,2.35,0,0,0,785.21,399.31Zm8.48-4.92a2.39,2.39,0,0,0,.87-3.25,2.37,2.37,0,1,0-.87,3.25Zm8.48-4.93a2.38,2.38,0,0,0,.86-3.25,2.35,2.35,0,0,0-3.23-.87,2.38,2.38,0,0,0-.86,3.25A2.35,2.35,0,0,0,802.17,389.46Z" transform="translate(-745.5 -371.44)"/></svg>