<svg id="Layer_1" data-name="Layer 1" xmlns="http://www.w3.org/2000/svg" viewBox="0 0 86.99 86.99"><defs><style>.cls-1{fill:#04043d;}</style></defs><path class="cls-1" d="M787.86,527.26a14.14,14.14,0,1,0-14.13-14.13A14.13,14.13,0,0,0,787.86,527.26Z" transform="translate(-715.01 -440.27)"/><path class="cls-1" d="M789,466.37a13.05,13.05,0,1,0-13.05-13.05A13,13,0,0,0,789,466.37Z" transform="translate(-715.01 -440.27)"/><path class="cls-1" d="M728.06,466.37a13.05,13.05,0,1,0-13-13.05A13.05,13.05,0,0,0,728.06,466.37Z" transform="translate(-715.01 -440.27)"/><path class="cls-1" d="M727.32,466.46a30.13,30.13,0,0,0,28.44,20.22h.13l15.36,0a14.74,14.74,0,0,1,14.31,10.83v8a3.33,3.33,0,0,0,6.65,0V456.63a3.31,3.31,0,0,0-3.3-3.31,3.34,3.34,0,0,0-3.35,3.31v28.79a21.51,21.51,0,0,0-14.27-5.48h-.08l-15.36,0h-.09a23.43,23.43,0,0,1-22.14-15.74,3.41,3.41,0,0,0-3.17-2.22,4.6,4.6,0,0,0-1.09.18A3.34,3.34,0,0,0,727.32,466.46Z" transform="translate(-715.01 -440.27)"/></svg>