<svg id="Layer_1" data-name="Layer 1" xmlns="http://www.w3.org/2000/svg" viewBox="0 0 95.27 106.37"><defs><style>.cls-1{fill:#04043d;}.cls-2{fill:#bad3e6;fill-rule:evenodd;}</style></defs><path class="cls-1" d="M647.41,557.64a3.83,3.83,0,1,0-5.41,0A3.91,3.91,0,0,0,647.41,557.64Z" transform="translate(-590.26 -508)"/><path class="cls-1" d="M680.63,578.56V544.73A6.49,6.49,0,0,0,679,532a6.4,6.4,0,0,0-4.39,1.74l-30.22-17.44a6,6,0,0,0,.28-1.75,6.51,6.51,0,0,0-13,0,6.34,6.34,0,0,0,.27,1.75l-30.2,17.44a6.45,6.45,0,0,0-4.4-1.74,6.49,6.49,0,0,0-1.62,12.78v34.35a6.5,6.5,0,1,0,6,10.57l30,17.33a5.15,5.15,0,0,0-.09.88,6.51,6.51,0,0,0,13,0,5.16,5.16,0,0,0-.1-.88l30.06-17.35a6.49,6.49,0,1,0,6-11.07Zm-41.24-57.67a6.39,6.39,0,0,0,3.43-1.85l30.06,17.36a6.11,6.11,0,0,0-.37,2.06,6.27,6.27,0,0,0,.48,2.4l-8.19,5.2a30.87,30.87,0,0,0-25.41-15.69ZM603.48,536.4l30-17.36a6.46,6.46,0,0,0,3.44,1.85v9.45a30.88,30.88,0,0,0-25.86,15.52l-7.75-5a6.08,6.08,0,0,0,.12-4.48Zm-1.86,44.79a6.42,6.42,0,0,0-2.67-1.81V544.73a6.42,6.42,0,0,0,3.11-1.82L610,548a30.67,30.67,0,0,0,.57,27.51ZM637,601.46a6.57,6.57,0,0,0-4,2.5l-29.84-17.23a7.24,7.24,0,0,0,.12-1.24,6.48,6.48,0,0,0-.41-2.22l8.92-5.66A30.87,30.87,0,0,0,637,592Zm6.4,2.5a6.52,6.52,0,0,0-4-2.5V592a30.83,30.83,0,0,0,24.81-14.71l8.66,5.57a6.27,6.27,0,0,0-.35,2,6.65,6.65,0,0,0,.38,2.08Zm34-25.4a6.41,6.41,0,0,0-3.39,2.16l-8.63-5.54a30.56,30.56,0,0,0,.5-27l8.41-5.33a6.37,6.37,0,0,0,3.11,1.84Z" transform="translate(-590.26 -508)"/><path class="cls-2" d="M638.7,544.06a16.23,16.23,0,1,1-16.23,16.22A16.22,16.22,0,0,1,638.7,544.06Zm-8.92,14.44a2.45,2.45,0,0,0,0,3.48l7.09,7.23a2.47,2.47,0,0,0,3.24.24l-8.48-8.51a1.05,1.05,0,0,1,0-1.51l3.1-2.94a1,1,0,0,1,1.47,0l5.17,5.22,1.41-1.38L635.41,553Zm4.31,2.11,7.48,7.4,6-5.87a2.47,2.47,0,0,0,0-3.49l-7.1-7.22a2.47,2.47,0,0,0-3.46,0l8.32,8.47a1.06,1.06,0,0,1,0,1.5l-3.84,3.72-6-5.87Z" transform="translate(-590.26 -508)"/></svg>