<svg id="Layer_1" data-name="Layer 1" xmlns="http://www.w3.org/2000/svg" viewBox="0 0 120.5 108.42"><defs><style>.cls-1{fill:#000040;}</style></defs><path class="cls-1" d="M793.26,503.26l16.26,8.88-19.81,10.48L769.9,512.14l16.27-8.88V469.93a3.54,3.54,0,0,1,3.54-3.55h14.18V458.2l19.49,10.32v21.23l-17.65-9.62a3.56,3.56,0,0,1-1.84-3.11v-3.55H793.26Zm74.42,0,16.26,8.88-19.81,10.48-19.8-10.48,16.26-8.88V473.47H850V477a3.55,3.55,0,0,1-1.85,3.11l-17.64,9.62V468.52L850,458.2v8.18h14.17a3.55,3.55,0,0,1,3.55,3.55Zm-60.56-51.37L825.23,442a3.52,3.52,0,0,1,3.39,0l18.11,9.88-19.81,10.48Zm34,80.06H812.75v5.31a3.56,3.56,0,0,1-1.85,3.12L793.25,550V528.77l19.5-10.32v6.41H841.1v-6.41l19.49,10.32V550L843,540.38a3.56,3.56,0,0,1-1.85-3.12Zm46.07-13.5v18.81a3.56,3.56,0,0,1-1.85,3.12L867.68,550V528.77ZM786.17,550l-17.65-9.62a3.56,3.56,0,0,1-1.84-3.12V518.45l19.49,10.32Z" transform="translate(-766.68 -441.58)"/></svg>