<svg id="Layer_1" data-name="Layer 1" xmlns="http://www.w3.org/2000/svg" viewBox="0 0 171.12 155.56"><defs><style>.cls-1{fill:#0071ff;}</style></defs><path class="cls-1" d="M975.15,498.66h-70v-2.59a10.38,10.38,0,0,1,10.37-10.37h49.26a10.36,10.36,0,0,1,10.37,10.37Zm0,10.37v20.75a10.39,10.39,0,0,1-10.37,10.37H915.52a10.36,10.36,0,0,1-10.37-10.37V509Zm-20.74,20.75h5.18a5.19,5.19,0,1,0,0-10.37h-5.18a5.19,5.19,0,1,0,0,10.37Zm-23.34,0h5.19a5.19,5.19,0,0,0,0-10.37h-5.19a5.19,5.19,0,0,0,0,10.37Zm-36.29-15.56v10.37h-6l-7.7,6.16A13,13,0,1,1,868.85,522a12.86,12.86,0,0,1,5.23,1.1l9.68-7.74a5.16,5.16,0,0,1,3.24-1.14ZM953,550.52h11.83c.32,0,.65,0,1,0l9.45,13H997a13,13,0,1,1,0,10.37H972.56a5.2,5.2,0,0,1-4.2-2.13Zm-40.66-.25a21.44,21.44,0,0,0,3.23.25h9.33l-16,22.44a12.83,12.83,0,0,1,1.51,6.08,12.95,12.95,0,1,1-9.64-12.54Zm41.63-74.94H941.74l16-26.05a5.18,5.18,0,0,1,4.42-2.47H986.6a13,13,0,1,1,0,10.37H965.08Zm-57.23,12a20.63,20.63,0,0,0-1.91,8.71v1.65l-12.19-4.57a5.19,5.19,0,0,1-3.37-4.86v-27a13,13,0,1,1,10.37,0V484.7Zm88.83,39.82V516.81h5.86l10.35-8.87a13.17,13.17,0,0,1-.65-4.09,12.95,12.95,0,1,1,7.59,11.8l-12,10.28a5.15,5.15,0,0,1-3.37,1.25Z" transform="translate(-855.89 -436.44)"/></svg>