<svg id="Layer_1" data-name="Layer 1" xmlns="http://www.w3.org/2000/svg" viewBox="0 0 104.77 153.19"><defs><style>.cls-1{fill:#0071ff;}</style></defs><path class="cls-1" d="M906.35,469.27v7.86a4.56,4.56,0,1,0,9.11,0v-12.2l9.11-4.34V484a4.56,4.56,0,0,0,9.11,0V460.59l9.11,4.34v12.2a4.56,4.56,0,1,0,9.11,0v-7.86l24.77,11.8L929.12,504l-47.55-22.89ZM924.57,562l-45.23-21.54a4.54,4.54,0,0,1-2.6-4.11v-47.5l47.83,23Zm56.93-73.15v47.5a4.55,4.55,0,0,1-2.59,4.11L933.68,562V511.88Zm-29.6-19.58-9.11-4.34v-6a4.55,4.55,0,0,1,2.51-4.07L961,447v-6.3a4.43,4.43,0,0,1,.09-.9,11.39,11.39,0,1,1,8.93,0,4.43,4.43,0,0,1,.09.9v9.11a4.56,4.56,0,0,1-2.52,4.08l-15.7,7.85Zm-36.44-4.34-9.11,4.34v-7.54l-15.71-7.85a4.56,4.56,0,0,1-2.51-4.08v-9.11a4.43,4.43,0,0,1,.09-.9,11.39,11.39,0,1,1,8.93,0,4.43,4.43,0,0,1,.09.9V447l15.7,7.85a4.56,4.56,0,0,1,2.52,4.07Zm18.22-4.34-2.6-1.23a4.56,4.56,0,0,0-3.92,0l-2.59,1.23v-29a4.6,4.6,0,0,1,.09-.91,11.39,11.39,0,1,1,8.93,0,4.6,4.6,0,0,1,.09.91Z" transform="translate(-876.74 -408.81)"/></svg>