<svg id="Layer_1" data-name="Layer 1" xmlns="http://www.w3.org/2000/svg" viewBox="0 0 128 128"><defs><style>.cls-1{fill:#000040;}</style></defs><path class="cls-1" d="M733.79,540.14H722l4.57,4.57h11.82Z" transform="translate(-718.74 -435)"/><path class="cls-1" d="M753,511.77l13.72,13.71V486.23L753,472.52Z" transform="translate(-718.74 -435)"/><path class="cls-1" d="M756.25,469.29,770,483h39.25L795.5,469.29Z" transform="translate(-718.74 -435)"/><path class="cls-1" d="M771.31,487.57h41.14v41.14H771.31Z" transform="translate(-718.74 -435)"/><path class="cls-1" d="M823.88,555.2l4.57,4.57V548l-4.57-4.57Z" transform="translate(-718.74 -435)"/><path class="cls-1" d="M723.31,442.8l-4.57-4.57v11.84l4.57,4.57Z" transform="translate(-718.74 -435)"/><path class="cls-1" d="M727.88,444.15h13.71v13.71H727.88Z" transform="translate(-718.74 -435)"/><path class="cls-1" d="M738.37,439.57,733.8,435H722l4.57,4.57Z" transform="translate(-718.74 -435)"/><path class="cls-1" d="M838.93,540.14H827.11l4.57,4.57H843.5Z" transform="translate(-718.74 -435)"/><path class="cls-1" d="M828.45,442.81l-4.57-4.58v11.83l4.57,4.57Z" transform="translate(-718.74 -435)"/><path class="cls-1" d="M833,444.15h13.72v13.71H833Z" transform="translate(-718.74 -435)"/><path class="cls-1" d="M727.88,549.29h13.71V563H727.88Z" transform="translate(-718.74 -435)"/><path class="cls-1" d="M843.5,439.57,838.93,435H827.11l4.57,4.57Z" transform="translate(-718.74 -435)"/><path class="cls-1" d="M833,549.29h13.72V563H833Z" transform="translate(-718.74 -435)"/><path class="cls-1" d="M718.74,555.2l4.57,4.57V548l-4.57-4.57Z" transform="translate(-718.74 -435)"/><path class="cls-1" d="M750.74,441.86h64v4.57h-64Z" transform="translate(-718.74 -435)"/><path class="cls-1" d="M750.74,551.57h64v4.57h-64Z" transform="translate(-718.74 -435)"/><path class="cls-1" d="M723.31,467h4.57v64h-4.57Z" transform="translate(-718.74 -435)"/><path class="cls-1" d="M837.59,467h4.57v64h-4.57Z" transform="translate(-718.74 -435)"/></svg>