<svg id="Layer_1" data-name="Layer 1" xmlns="http://www.w3.org/2000/svg" viewBox="0 0 112.68 112.68"><defs><style>.cls-1{fill:#000040;}</style></defs><path class="cls-1" d="M866.75,483.9h4a4,4,0,0,0,4-4v-4a4,4,0,0,0-4-4h-4a4,4,0,0,0-4,4v.22H849.71A1.76,1.76,0,0,0,848,478v14.69a15.69,15.69,0,0,1-5-11.52,4,4,0,0,0-1.16-2.8,4,4,0,0,0-2.81-1.16H797.65a4,4,0,0,0-4,4,15.86,15.86,0,0,1-.88,5.2h-13.2v-5.51h.66a4,4,0,0,0,4-4v-4a4,4,0,0,0-4-4h-4a4,4,0,0,0-4,4v4a4,4,0,0,0,1.08,2.73,3.93,3.93,0,0,0,2.66,1.23v7.27a1.78,1.78,0,0,0,1.76,1.76h13.24a15.84,15.84,0,0,1-10.57,6.9,5.28,5.28,0,0,0-4.43,5.21c0,7.56-.57,19.24,5.68,34.26.22.54.46,1.07.69,1.6H769.7v-4a4,4,0,0,0,4.18-4v-4a4,4,0,0,0-4-4h-4a3.93,3.93,0,0,0-2.8,1.16,4,4,0,0,0-1.16,2.8v4a4,4,0,0,0,4.18,4v5.72a1.77,1.77,0,0,0,.52,1.25,1.74,1.74,0,0,0,1.24.51h16.19A73.34,73.34,0,0,0,794.79,557h-8.14a1.74,1.74,0,0,0-1.76,1.76v11h-.22a4,4,0,0,0-2.8,1.16,3.93,3.93,0,0,0-1.16,2.8v4a4,4,0,0,0,4,4h4a4,4,0,0,0,2.8-1.16,4,4,0,0,0,1.16-2.81v-4a4,4,0,0,0-4.18-4v-9.24h9.72A73.83,73.83,0,0,0,813.28,572a10.56,10.56,0,0,0,10.63-.09,73.54,73.54,0,0,0,9.57-6.87v10.64a1.77,1.77,0,0,0,.52,1.25,1.74,1.74,0,0,0,1.24.51H854a4,4,0,0,0,4,4.19h4a4,4,0,0,0,4-4v-4a3.93,3.93,0,0,0-1.16-2.8,4,4,0,0,0-2.8-1.16h-4a4,4,0,0,0-4,4v.22H837v-12A74.33,74.33,0,0,0,858.13,527H867v10.78h-.22a4,4,0,0,0-4,4v4a4,4,0,0,0,1.16,2.81,4,4,0,0,0,2.8,1.16h4a4,4,0,0,0,4-4v-4a4,4,0,0,0-4-4h-.22V525.28a1.74,1.74,0,0,0-1.76-1.76H859a75.51,75.51,0,0,0,1.62-15.72V502a5.28,5.28,0,0,0-4.43-5.21,15.58,15.58,0,0,1-4.69-1.59V479.72h11.32A4,4,0,0,0,866.75,483.9Zm-19.58,29.69a48.54,48.54,0,0,1-9.64,29.47A54.12,54.12,0,0,1,822.36,557a7.65,7.65,0,0,1-7.7.06,50.13,50.13,0,0,1-25.15-43.42v-3.9a4.13,4.13,0,0,1,3.44-4.06,10,10,0,0,0,8.33-9.86,3.23,3.23,0,0,1,3.23-3.23h27.66a3.23,3.23,0,0,1,3.23,3.23,10,10,0,0,0,8.32,9.86,4.12,4.12,0,0,1,3.45,4.06Z" transform="translate(-762 -468.94)"/><path class="cls-1" d="M843.13,509.1a13.48,13.48,0,0,1-11.25-13H804.8a13.55,13.55,0,0,1-11.26,13,.68.68,0,0,0-.36.2.58.58,0,0,0-.15.39v3.9A46.62,46.62,0,0,0,816.42,554a4.11,4.11,0,0,0,4.14,0c5.42-3.22,23.09-15.66,23.09-40.33v-3.9a.64.64,0,0,0-.16-.39A.68.68,0,0,0,843.13,509.1ZM831.54,535a1.74,1.74,0,0,1-1.76,1.76H806.89a1.76,1.76,0,0,1-1.76-1.76V519.12a1.76,1.76,0,0,1,1.76-1.76h.88a.92.92,0,0,0,.63-.26.9.9,0,0,0,.25-.62v-3.36a9.86,9.86,0,0,1,9.72-9.85A9.68,9.68,0,0,1,828,513v3.53a.87.87,0,0,0,.26.62.9.9,0,0,0,.62.26h.88a1.74,1.74,0,0,1,1.76,1.76Z" transform="translate(-762 -468.94)"/><path class="cls-1" d="M813.06,517.36h10.56a.9.9,0,0,0,.62-.26.87.87,0,0,0,.26-.62V513a6,6,0,0,0-.48-2.37,6.16,6.16,0,0,0-11.84,2.51v3.39a.9.9,0,0,0,.25.62A.92.92,0,0,0,813.06,517.36Z" transform="translate(-762 -468.94)"/><path class="cls-1" d="M826.26,520.88H810.42a1.76,1.76,0,0,0-1.77,1.76v8.8a1.75,1.75,0,0,0,.52,1.24,1.77,1.77,0,0,0,1.25.52h15.84a1.79,1.79,0,0,0,1.25-.52,1.74,1.74,0,0,0,.51-1.24v-8.8a1.74,1.74,0,0,0-1.76-1.76Zm-6.16,7a1.75,1.75,0,0,1-.52,1.24,1.75,1.75,0,0,1-2.49,0,1.74,1.74,0,0,1-.51-1.24v-1.54a1.76,1.76,0,1,1,3.52,0Z" transform="translate(-762 -468.94)"/></svg>