<svg id="Layer_1" data-name="Layer 1" xmlns="http://www.w3.org/2000/svg" viewBox="0 0 297.25 290.09"><defs><style>.cls-1,.cls-2{fill:#000040;stroke:#000040;stroke-miterlimit:10;}.cls-1{stroke-width:1.04px;}</style></defs><path class="cls-1" d="M288.21.52H137.36c-4.76,0-8.56,4.4-8.56,9.9V92.6h10.14a14.63,14.63,0,0,1,6.66,1.47V20H279.66V180.64H145.91V153.52a18.69,18.69,0,0,1-12,4.76h-4.75v32.24c0,5.5,3.8,9.9,8.55,9.9h66.87v33L171,271.94c-3.17,3.67-3.17,9.9,0,13.94a7.91,7.91,0,0,0,12,0L213.1,251l30.11,34.85A7.65,7.65,0,0,0,254,287.13a7.39,7.39,0,0,0,1.25-1.25c3.17-3.67,3.17-9.91,0-13.94L221.3,233.05v-33h66.87c4.44,0,8.56-4.4,8.56-9.9V10.06C296.77,4.52,293,.52,288.21.52Z" transform="translate(0 0)"/><path class="cls-1" d="M148.67,139l5.93-16.89c1.32-3.6-1.32-7.55-4.94-7.55H39.39c-17.45,0-32.26,14.37-34.23,33.78L.55,193.58c-.33,4.67,2.3,8.62,6.58,9.7a161.08,161.08,0,0,0,16.79,2.51l4,73c.33,6.11,4.94,10.78,10.53,10.78H70.71c5.6,0,10.21-4.67,10.53-10.78l5.6-125c-.07-6.21,4.93-11.27,10.48-11.27h46.75A5,5,0,0,0,148.67,139Z" transform="translate(0 0)"/><circle class="cls-2" cx="54.53" cy="70.45" r="35.22"/><path class="cls-2" d="M206.77,130.28l43.78-47.07a3.91,3.91,0,0,0,.11-5.53,4.09,4.09,0,0,0-.44-.39l-8.89-8.56a3.91,3.91,0,0,0-5.53-.11,4.09,4.09,0,0,0-.39.44L203.77,103,187,84.86a4.51,4.51,0,0,0-5.93-.33l-8.88,8.56a4.52,4.52,0,0,0-.33,5.92l29,30.94a3.92,3.92,0,0,0,5.5.72A4,4,0,0,0,206.77,130.28Z" transform="translate(0 0)"/></svg>