<svg width="20" height="20" viewBox="0 0 20 20" fill="none" xmlns="http://www.w3.org/2000/svg">
<path d="M19.7392 9.07001C19.6892 8.56001 19.2592 8.17999 18.7492 8.17999H11.1992C10.6492 8.17999 10.1992 8.62999 10.1992 9.17999V10.89C10.1992 11.44 10.6492 11.89 11.1992 11.89H15.7092C15.5992 12.81 14.9992 14.2 13.6692 15.13C12.8192 15.72 11.6892 16.13 10.1992 16.13C10.1292 16.13 10.0692 16.13 9.99922 16.12C7.44922 16.04 5.28922 14.33 4.50922 11.98C4.29922 11.35 4.17922 10.69 4.17922 10C4.17922 9.31 4.29922 8.63999 4.49922 8.01999C4.55922 7.83999 4.62922 7.66001 4.70922 7.48001C5.62922 5.41001 7.63922 3.95 9.99922 3.88C10.0592 3.87 10.1292 3.87 10.1992 3.87C11.6292 3.87 12.6992 4.33999 13.4492 4.85999C13.8392 5.12999 14.3592 5.06999 14.6992 4.73999L16.0892 3.38C16.5292 2.95 16.4892 2.21999 15.9892 1.85999C14.3992 0.689985 12.4592 0 10.1992 0C10.1292 0 10.0692 9.76585e-06 9.99922 0.0100098C6.16922 0.0800098 2.87922 2.30001 1.26922 5.51001C0.589218 6.87001 0.199219 8.39 0.199219 10C0.199219 11.61 0.589218 13.13 1.26922 14.49H1.27922C2.88922 17.7 6.17922 19.92 9.99922 19.99C10.0692 20 10.1292 20 10.1992 20C12.8992 20 15.1692 19.11 16.8192 17.58C18.7092 15.83 19.7992 13.27 19.7992 10.22C19.7992 9.79 19.7792 9.42001 19.7392 9.07001Z" fill="#404F77"/>
</svg>
