<svg id="Layer_1" data-name="Layer 1" xmlns="http://www.w3.org/2000/svg" viewBox="0 0 61.9 62.4"><defs><style>.cls-1{fill:#000040;}</style></defs><path class="cls-1" d="M45.7,35.6a4.4,4.4,0,1,0,4.4-4.4A4.44,4.44,0,0,0,45.7,35.6Z" transform="translate(-2.1 -11.8)"/><path class="cls-1" d="M21.7,46.9A9.47,9.47,0,0,1,23,42.2a7.06,7.06,0,0,0-4.5-1.6.55.55,0,0,0-.5.3l-1.6,3.2L14.8,41a.71.71,0,0,0-.6-.3,6.81,6.81,0,0,0-6.8,6.8V51H21.7Z" transform="translate(-2.1 -11.8)"/><path class="cls-1" d="M16.4,40.1A4.4,4.4,0,1,0,12,35.7,4.44,4.44,0,0,0,16.4,40.1Z" transform="translate(-2.1 -11.8)"/><path class="cls-1" d="M51.8,41l-1.6,3.2L48.5,41a.71.71,0,0,0-.6-.3,6.83,6.83,0,0,0-4.7,1.9A8.31,8.31,0,0,1,44.4,47v4H59.1V47.5a6.81,6.81,0,0,0-6.8-6.8A.55.55,0,0,0,51.8,41Z" transform="translate(-2.1 -11.8)"/><path class="cls-1" d="M22.9,46.9v4H43.3v-4a7.7,7.7,0,0,0-7.7-7.7.55.55,0,0,0-.5.3l-1.9,3.8-1.9-3.8a.71.71,0,0,0-.6-.3A7.79,7.79,0,0,0,22.9,46.9Z" transform="translate(-2.1 -11.8)"/><path class="cls-1" d="M21.7,33.8h5.2v-.3a6.13,6.13,0,0,1,7.5-6,6.85,6.85,0,0,0-6.9-6,.55.55,0,0,0-.5.3l-1.7,3.4-1.7-3.4a.55.55,0,0,0-.5-.3,6.91,6.91,0,0,0-6.9,6.9V30h.3A5.5,5.5,0,0,1,21.7,33.8Z" transform="translate(-2.1 -11.8)"/><path class="cls-1" d="M35.7,27.9a6.21,6.21,0,0,1,3.6,5.6v.3h5.6A5.62,5.62,0,0,1,50.2,30V28.3a6.91,6.91,0,0,0-6.9-6.9.55.55,0,0,0-.5.3l-1.7,3.4-1.7-3.4a.55.55,0,0,0-.5-.3,6.65,6.65,0,0,0-4.7,1.9A12.46,12.46,0,0,1,35.7,27.9Z" transform="translate(-2.1 -11.8)"/><path class="cls-1" d="M25.2,20.8a4.5,4.5,0,1,0-4.5-4.5A4.61,4.61,0,0,0,25.2,20.8Z" transform="translate(-2.1 -11.8)"/><path class="cls-1" d="M40.9,20.8a4.5,4.5,0,1,0-4.5-4.5A4.55,4.55,0,0,0,40.9,20.8Z" transform="translate(-2.1 -11.8)"/><circle class="cls-1" cx="31" cy="21.7" r="5"/><path class="cls-1" d="M60.3,52.4H5.7a3.6,3.6,0,1,0,0,7.2H60.4A3.59,3.59,0,0,0,64,56,3.67,3.67,0,0,0,60.3,52.4Z" transform="translate(-2.1 -11.8)"/><path class="cls-1" d="M5.9,61V73.5a.68.68,0,0,0,.7.7H59.9a.68.68,0,0,0,.7-.7V61H5.9Z" transform="translate(-2.1 -11.8)"/></svg>