<svg id="Layer_1" data-name="Layer 1" xmlns="http://www.w3.org/2000/svg" viewBox="0 0 86.85 75.09"><defs><style>.cls-1{fill:#000040;}</style></defs><path class="cls-1" d="M24.45,28.57c2-.45,3.16-2.23,4.73-3.54A32.62,32.62,0,0,1,50,17.45,32.69,32.69,0,0,1,74.79,28.87c1.25,1.47,6.6.24,4.73-2.13a37.54,37.54,0,0,0-58.68-.32c-1.3,1.61,1.53,2.26,2.66,2.25A4.13,4.13,0,0,0,24.45,28.57Z" transform="translate(-6.57 -12.46)"/><path class="cls-1" d="M57.44,81.69a31.82,31.82,0,0,1-14.59,0A32.76,32.76,0,0,1,26.12,72a1.88,1.88,0,0,0-1.39-.62H23.1a1.9,1.9,0,0,0-1.45,3.13,37.53,37.53,0,0,0,56.79,0A1.9,1.9,0,0,0,77,71.41H75.87a3.1,3.1,0,0,0-2.24,1A32.62,32.62,0,0,1,57.44,81.69Z" transform="translate(-6.57 -12.46)"/><path class="cls-1" d="M20.54,50.82a8.43,8.43,0,1,0-6.88-6.88A8.44,8.44,0,0,0,20.54,50.82Z" transform="translate(-6.57 -12.46)"/><path class="cls-1" d="M31,66.94a15.32,15.32,0,0,1,2.81-6.71,11.89,11.89,0,0,0-8.06-3.15H18.2A11.94,11.94,0,0,0,6.61,66.2a1.35,1.35,0,0,0,1.32,1.63H30.85Z" transform="translate(-6.57 -12.46)"/><path class="cls-1" d="M69.94,41.75a8.43,8.43,0,1,0,6.88-6.88A8.44,8.44,0,0,0,69.94,41.75Z" transform="translate(-6.57 -12.46)"/><path class="cls-1" d="M82,57.75H74.48a11.81,11.81,0,0,0-7.79,2.92,15.59,15.59,0,0,1,2.44,6.27l.14.89H92.08A1.36,1.36,0,0,0,93.36,66,11.93,11.93,0,0,0,82,57.75Z" transform="translate(-6.57 -12.46)"/><path class="cls-1" d="M60.28,44.6a10.37,10.37,0,1,0-8.46,8.46A10.38,10.38,0,0,0,60.28,44.6Z" transform="translate(-6.57 -12.46)"/><path class="cls-1" d="M34.74,66.46a.81.81,0,0,0,.79,1H64.59a.82.82,0,0,0,.79-1,11.93,11.93,0,0,0-11.55-9H46.29A11.92,11.92,0,0,0,34.74,66.46Z" transform="translate(-6.57 -12.46)"/></svg>