<svg id="Layer_1" data-name="Layer 1" xmlns="http://www.w3.org/2000/svg" viewBox="0 0 83.96 63.3"><defs><style>.cls-1{fill:#000040;}</style></defs><path class="cls-1" d="M39.35,42.13a.93.93,0,0,0-.86,1v2.57a.94.94,0,0,0,.86,1h1.88a12.86,12.86,0,0,0,1.46,4.15L41.4,52.32a1.06,1.06,0,0,0,0,1.38L43,55.58a.76.76,0,0,0,1.2,0l1.29-1.48a10.21,10.21,0,0,0,3.6,1.68v2.07a.93.93,0,0,0,.85,1H52.2a.93.93,0,0,0,.86-1V55.68A9.67,9.67,0,0,0,56.66,54l1.28,1.48a.75.75,0,0,0,1.2,0l1.63-1.88a1.06,1.06,0,0,0,0-1.38l-1.29-1.49a13.76,13.76,0,0,0,1.46-4.15h1.88a.93.93,0,0,0,.86-1V43a.93.93,0,0,0-.86-1H60.94a12.86,12.86,0,0,0-1.46-4.15l1.29-1.49a1.06,1.06,0,0,0,0-1.38l-1.63-1.88a.75.75,0,0,0-1.2,0l-1.28,1.48a10.38,10.38,0,0,0-3.6-1.68V30.76a.94.94,0,0,0-.86-1H50a.92.92,0,0,0-.85,1v2.17a9.6,9.6,0,0,0-3.6,1.68l-1.37-1.38a.75.75,0,0,0-1.2,0L41.4,35.11a1.06,1.06,0,0,0,0,1.38L42.69,38a13.76,13.76,0,0,0-1.46,4.15Zm8.22,3.93h1.72v-7.2a.4.4,0,0,1,.34-.39h2.66a.4.4,0,0,1,.34.39v7.2h1.8c.17,0,.25.29.17.39l-3.43,4.67a.23.23,0,0,1-.43,0l-3.42-4.67C47.32,46.26,47.4,46.06,47.57,46.06Zm45.06,47h-84c.08-12.69-.17-19.53,4-22.53a33.7,33.7,0,0,0,6.17-5.84l3,18.19.43,2.5,1.29-7.34c-3.09-8.35.25-8.68.77-8.68h0c.6,0,3.85.33.77,8.68l1.28,7.34.43-2.5,3-18.19a31.58,31.58,0,0,0,5,4.84A8.16,8.16,0,0,1,37.11,67a42.29,42.29,0,0,0,7.11-6.67h0l3.43,21,.43,2.83,1.54-8.51c-3.51-9.51.26-10,.94-10h0c.69,0,4.46.5.95,10l1.54,8.51.43-2.83,3.42-21h0A42.79,42.79,0,0,0,64,67a8.07,8.07,0,0,1,2.32,2.51,37.47,37.47,0,0,0,5-4.84l3,18.19.42,2.5L76,78.05c-3.09-8.35.26-8.68.77-8.68h0c.6,0,3.86.33.77,8.68l1.29,7.34.42-2.5,3-18.19a34.11,34.11,0,0,0,6.17,5.84C92.8,73.54,92.54,80.38,92.63,93.07ZM66.84,50.29a.75.75,0,0,0-.68.81v2.32a.73.73,0,0,0,.68.8h1.63a11.72,11.72,0,0,0,1.28,3.63l-1.11,1.31a1,1,0,0,0,0,1.21L70,62a.7.7,0,0,0,1,0l1.11-1.31a9.17,9.17,0,0,0,3.09,1.51V64.1a.74.74,0,0,0,.68.81h2a.75.75,0,0,0,.69-.81V62.19a8.37,8.37,0,0,0,3.08-1.51L82.78,62a.7.7,0,0,0,1,0l1.37-1.62a1.07,1.07,0,0,0,0-1.21l-1.12-1.31a12.84,12.84,0,0,0,1.29-3.63H87a.74.74,0,0,0,.68-.8V51.1a.74.74,0,0,0-.68-.81H85.35a11.82,11.82,0,0,0-1.29-3.63l1.12-1.31a1.07,1.07,0,0,0,0-1.21l-1.37-1.61a.7.7,0,0,0-1,0l-1.12,1.31a9.12,9.12,0,0,0-3.08-1.51V40.42a.74.74,0,0,0-.69-.81h-2a.74.74,0,0,0-.68.81v1.81a8.41,8.41,0,0,0-3.09,1.51L71,42.43a.7.7,0,0,0-1,0L68.64,44a1,1,0,0,0,0,1.21l1.11,1.31a12.83,12.83,0,0,0-1.28,3.63H66.84Zm10-4c2.48,0,4.45,2.57,4.45,5.82s-2,5.81-4.45,5.81-4.46-2.57-4.46-5.81S74.47,46.24,76.87,46.24Zm-63,2.7a.74.74,0,0,0-.69.8v2.32a.74.74,0,0,0,.69.81h1.63a11.56,11.56,0,0,0,1.28,3.63l-1.11,1.31a1,1,0,0,0,0,1.21l1.37,1.61a.7.7,0,0,0,1,0l1.11-1.31a8.9,8.9,0,0,0,3.09,1.51v1.92a.73.73,0,0,0,.68.8h2a.74.74,0,0,0,.69-.8V60.83a8.29,8.29,0,0,0,3.08-1.51l1.12,1.31a.69.69,0,0,0,1,0L32.21,59a1,1,0,0,0,0-1.21L31.1,56.5a12.84,12.84,0,0,0,1.29-3.63H34a.75.75,0,0,0,.69-.81V49.74a.73.73,0,0,0-.69-.8H32.39a11.82,11.82,0,0,0-1.29-3.63L32.21,44a1,1,0,0,0,0-1.21l-1.37-1.61a.68.68,0,0,0-1,0L28.7,42.49A8.94,8.94,0,0,0,25.62,41V39.06a.75.75,0,0,0-.69-.81H23a.75.75,0,0,0-.68.81v1.81a8.43,8.43,0,0,0-3.09,1.52l-1.11-1.31a.69.69,0,0,0-1,0l-1.37,1.61a1,1,0,0,0,0,1.21l1.11,1.31a12.52,12.52,0,0,0-1.28,3.63H13.88Zm10-4c2.49,0,4.46,2.57,4.46,5.81s-2,5.82-4.46,5.82-4.45-2.58-4.45-5.82S21.5,44.89,23.9,44.89Z" transform="translate(-8.67 -29.77)"/></svg>