<svg id="Layer_1" data-name="Layer 1" xmlns="http://www.w3.org/2000/svg" viewBox="0 0 128 128.02"><defs><style>.cls-1{fill:#fff;}.cls-2{fill:#0071ff;}</style></defs><polygon class="cls-1" points="83.5 107.7 83.5 112.32 88 114.74 92.5 112.32 92.5 107.7 88 105.28 83.5 107.7"/><polygon class="cls-1" points="35.5 107.7 35.5 112.32 40 114.74 44.5 112.32 44.5 107.7 40 105.28 35.5 107.7"/><polygon class="cls-1" points="11.5 61.7 11.5 66.32 16 68.74 20.5 66.32 20.5 61.7 16 59.28 11.5 61.7"/><polygon class="cls-1" points="107.5 61.7 107.5 66.32 112 68.74 116.5 66.32 116.5 61.7 112 59.28 107.5 61.7"/><polygon class="cls-1" points="68.5 20.32 68.5 15.7 64 13.28 59.5 15.7 59.5 20.32 64 22.74 68.5 20.32"/><polygon class="cls-1" points="59.5 61.7 59.5 66.32 64 68.74 68.5 66.32 68.5 61.7 64 59.28 59.5 61.7"/><path class="cls-2" d="M127,64.26l-13-7.42V27.74A8,8,0,1,0,104.26,18H78.53L65,10.26a2,2,0,0,0-2,0L49.47,18H23.74A8,8,0,1,0,14,27.74v29.1L1,64.26A2,2,0,0,0,0,66V82a2,2,0,0,0,1,1.74l14,8a2,2,0,0,0,2,0l12.68-7.25,7.83,7.84v10.8L25,110.26A2,2,0,0,0,24,112v16a2,2,0,0,0,1,1.74l14,8a2,2,0,0,0,2,0l14-8A2,2,0,0,0,56,128V112a2,2,0,0,0-1-1.74l-13.5-7.71V92.73l8.79-8.26L63,91.74a2,2,0,0,0,2,0l12.68-7.25,7.83,7.84v10.8L73,110.26A2,2,0,0,0,72,112v16a2,2,0,0,0,1,1.74l14,8a2,2,0,0,0,2,0l14-8a2,2,0,0,0,1-1.74V112a2,2,0,0,0-1-1.74l-13.5-7.71V92.73l8.79-8.26L111,91.74a2,2,0,0,0,2,0l14-8A2,2,0,0,0,128,82V66A2,2,0,0,0,127,64.26ZM112,16a4,4,0,1,1-4,4A4,4,0,0,1,112,16ZM55.5,24.5a2,2,0,0,1,1-1.76l6.5-3.5a2,2,0,0,1,1.9,0l6.5,3.5a2,2,0,0,1,1,1.76v7a2,2,0,0,1-1,1.76L65,36.76a2,2,0,0,1-1.9,0l-6.5-3.5a2,2,0,0,1-1-1.76ZM12,20a4,4,0,1,1,4,4A4,4,0,0,1,12,20ZM24.5,77.5a2,2,0,0,1-1,1.76L17,82.76a2,2,0,0,1-1.9,0l-6.5-3.5a2,2,0,0,1-1-1.76v-7a2,2,0,0,1,1-1.76l6.5-3.5a2,2,0,0,1,1.9,0l6.5,3.5a2,2,0,0,1,1,1.76Zm23,37.24a2,2,0,0,1,1,1.76v7a2,2,0,0,1-1,1.76l-6.5,3.5a2,2,0,0,1-1.9,0l-6.5-3.5a2,2,0,0,1-1-1.76v-7a2,2,0,0,1,1-1.76l6.5-3.5a2,2,0,0,1,1.9,0ZM49,64.26A2,2,0,0,0,48,66V81.13L39.73,88.9,32,81.17V66a2,2,0,0,0-1-1.74L18,56.84V27.74A8.05,8.05,0,0,0,23.74,22H48V36a2,2,0,0,0,1,1.74l13,7.42V56.84ZM72.5,77.5a2,2,0,0,1-1,1.76L65,82.76a2,2,0,0,1-1.9,0l-6.5-3.5a2,2,0,0,1-1-1.76v-7a2,2,0,0,1,1-1.76l6.5-3.5a2,2,0,0,1,1.9,0l6.5,3.5a2,2,0,0,1,1,1.76Zm23,37.24a2,2,0,0,1,1,1.76v7a2,2,0,0,1-1,1.76l-6.5,3.5a2,2,0,0,1-1.9,0l-6.5-3.5a2,2,0,0,1-1-1.76v-7a2,2,0,0,1,1-1.76l6.5-3.5a2,2,0,0,1,1.9,0ZM97,64.26A2,2,0,0,0,96,66V81.13L87.73,88.9,80,81.17V66a2,2,0,0,0-1-1.74L66,56.84V45.16l13-7.42A2,2,0,0,0,80,36V22h24.26A8.05,8.05,0,0,0,110,27.74v29.1ZM120.5,77.5a2,2,0,0,1-1,1.76l-6.5,3.5a2,2,0,0,1-1.9,0l-6.5-3.5a2,2,0,0,1-1-1.76v-7a2,2,0,0,1,1-1.76l6.5-3.5a2,2,0,0,1,1.9,0l6.5,3.5a2,2,0,0,1,1,1.76Z" transform="translate(0 -9.99)"/></svg>