<svg id="Layer_1" data-name="Layer 1" xmlns="http://www.w3.org/2000/svg" viewBox="0 0 58 59.24"><defs><style>.cls-1{fill:#0071ff;}</style></defs><path class="cls-1" d="M37,21V19H28c0,.33.05.66.05,1s0,.67-.05,1Z" transform="translate(-3 -8.76)"/><path class="cls-1" d="M15,38l1,0,1,0V32c-.33,0-.66.05-1,.05s-.67,0-1-.05Z" transform="translate(-3 -8.76)"/><path class="cls-1" d="M51,44.05V30H49v14c.33,0,.66,0,1,0S50.67,44,51,44.05Z" transform="translate(-3 -8.76)"/><path class="cls-1" d="M31,56v2h6c0-.33,0-.66,0-1s0-.67,0-1Z" transform="translate(-3 -8.76)"/><circle class="cls-1" cx="47" cy="45.24" r="4"/><path class="cls-1" d="M51,60H49a6.94,6.94,0,0,0-6.65,4.89,11,11,0,0,0,15.3,0A6.94,6.94,0,0,0,51,60Z" transform="translate(-3 -8.76)"/><path class="cls-1" d="M50,46a11,11,0,0,0-9.13,17.14A8.92,8.92,0,0,1,46,58.5a6,6,0,1,1,7.92,0,9,9,0,0,1,5.17,4.64A11,11,0,0,0,50,46Z" transform="translate(-3 -8.76)"/><path class="cls-1" d="M3,55.11V58c0,1.63,5.06,4,13,4s13-2.37,13-4V55.11C26.23,57,21,58,16,58S5.77,57,3,55.11Z" transform="translate(-3 -8.76)"/><path class="cls-1" d="M16,40C8.34,40,3,42.63,3,45s5.34,5,13,5,13-2.63,13-5S23.66,40,16,40Zm5,8H11a3,3,0,0,1,0-6H21a3,3,0,0,1,0,6Z" transform="translate(-3 -8.76)"/><path class="cls-1" d="M3,48.58V52c0,1.63,5.06,4,13,4s13-2.37,13-4V48.58C26.46,50.66,21.7,52,16,52S5.54,50.66,3,48.58Z" transform="translate(-3 -8.76)"/><path class="cls-1" d="M21,44H11a1,1,0,0,0,0,2H21a1,1,0,0,0,0-2Z" transform="translate(-3 -8.76)"/><path class="cls-1" d="M3,61.11V64c0,1.63,5.06,4,13,4s13-2.37,13-4V61.11C26.23,63,21,64,16,64S5.77,63,3,61.11Z" transform="translate(-3 -8.76)"/><path class="cls-1" d="M39,27a1,1,0,0,0,1,1H60a1,1,0,0,0,1-1V18H39Zm10-3h2v2H49Zm-4,0h2v2H45Zm-4,0h2v2H41Z" transform="translate(-3 -8.76)"/><path class="cls-1" d="M60,10H53a1,1,0,0,0-.8.4L49.5,14H40a1,1,0,0,0-1,1v1H61V11A1,1,0,0,0,60,10Zm-5,4H53V12h2Zm4,0H57V12h2Z" transform="translate(-3 -8.76)"/><path class="cls-1" d="M24.23,25.57H6.17a.4.4,0,0,0-.4.4v1.58a.4.4,0,0,0,.4.4H24.23a.4.4,0,0,0,.4-.4V26A.4.4,0,0,0,24.23,25.57Z" transform="translate(-3 -8.76)"/><rect class="cls-1" x="5.01" y="8.08" width="3.23" height="7.61"/><rect class="cls-1" x="10.58" y="8.08" width="3.23" height="7.61"/><rect class="cls-1" x="16.18" y="8.08" width="3.23" height="7.61"/><path class="cls-1" d="M6.17,15.75H24.23a.4.4,0,0,0,.4-.4V13.61a.38.38,0,0,0-.22-.36l-9-4.44a.38.38,0,0,0-.36,0L6,13.25a.38.38,0,0,0-.22.36v1.74A.4.4,0,0,0,6.17,15.75Zm9-4.6a1.31,1.31,0,1,1-1.31,1.31A1.3,1.3,0,0,1,15.2,11.15Z" transform="translate(-3 -8.76)"/></svg>